<svg xmlns="http://www.w3.org/2000/svg" data-name="Layer 1" viewBox="0 0 700 550" id="sales-executive-doing-sales-analysis"><path fill="#d5efc8" d="M427.95259,477.4477c16.25-5.08,30.83-10.27,48.37-20.12,18.09-10.16,98.45-58.51,108.9-142.19a159.61541,159.61541,0,0,0-6.66-68.16c-3.23-9.47-9.93-28.49-26.84-47.3-20.7-23.04-44.32-31.97-58.17-37.02-29.14-10.63-53.58-10.07-65.22-9.69-12.56.41-34.73,1.33-59.93,12.34-16.44,7.18-26.66,15.37-41.72,27.61-23.86,19.41-27,27.49-68.74,67.57-11.46,11-20.88,19.67-35.26,28.21-9.97,5.92-18.03,9.23-32.9,15.27-36.55,14.85-46.95658,17.85676-58.91658,26.21676-23.26,16.27-21.75342,34.01324-22.75342,37.83324a75.12694,75.12694,0,0,0-1.77,29.97c3.05,20.07,13.86,33.19,20.57,41.13a113.09822,113.09822,0,0,0,32.9,26.44,210.24676,210.24676,0,0,0,26.96,11.89Z"></path><path fill="#d5efc8" d="M479.544,463.26248l-.49024-.87207c23.9004-13.42725,102.69727-63.76465,113.17774-147.73682a166.2394,166.2394,0,0,0-6.91406-70.77148c-2.97657-8.73193-9.94922-29.18018-27.84766-49.0957-21.91992-24.39112-46.94531-33.51856-60.38965-38.42188a174.11457,174.11457,0,0,0-67.74707-10.06885c-12.4248.4043-35.55078,1.15674-62.24316,12.81153l-.40039-.916c26.86816-11.73242,51.00879-12.51758,62.61035-12.89453A175.00279,175.00279,0,0,1,497.422,155.42508c13.52637,4.9331,38.7041,14.11621,60.792,38.69336,18.03516,20.06738,25.05371,40.65088,28.05078,49.44092a167.31529,167.31529,0,0,1,6.959,71.21826C582.68564,399.21463,503.548,449.77664,479.544,463.26248Z"></path><polygon fill="#a2aee6" points="139.817 476.838 181.725 476.838 187.239 412.463 134.303 412.463 139.817 476.838"></polygon><path fill="#4f66d0" d="M181.72494,476.83843c-3.25359-10.807-6.63407-21.57263-10.03379-32.33205-1.67661-5.38727-3.43561-10.74769-5.1559-16.12078l-5.18606-16.11094a.60731.60731,0,0,0-1.15619,0l-5.1871,16.11061c-1.71866,5.37356-3.48107,10.73294-5.15694,16.12046L144.772,460.65218l-4.95479,16.18625,5.52215-16.00156,5.39987-16.04136c1.8165-5.34176,3.54645-10.71165,5.32-16.06735l5.28984-16.07721h-1.156l5.29081,16.07687c1.77207,5.35619,3.50536,10.725,5.321,16.067C174.38978,455.494,177.994,466.18685,181.72494,476.83843Z"></path><path fill="#4f66d0" d="M187.23907,412.46269c-4.64344,10.63381-9.16355,21.31836-13.66493,32.01061l-6.6973,16.06089-6.66795,16.073h1.1244l-6.667-16.07338c-2.23231-5.35364-4.42219-10.72478-6.69625-16.06129l-6.774-16.02935-6.893-15.98045,6.34106,16.20737,6.46,16.15847c2.13721,5.39275,4.35867,10.75089,6.53764,16.12652l6.56706,16.11443a.60716.60716,0,0,0,1.12455,0l6.56609-16.11484,6.53668-16.12693C178.75737,434.06142,183.06,423.28743,187.23907,412.46269Z"></path><path fill="#4f66d0" d="M184.482,447.95906c-3.95185-.251-7.90364-.36862-11.85549-.466-3.95178-.11127-7.90364-.12694-11.85549-.14223-3.95178.01365-7.90364.02979-11.85542.1401l-5.92771.16979c-1.97593.10111-3.95185.16034-5.92778.29834,1.97593.138,3.95185.19724,5.92778.29835l5.92771.16979c3.95178.11031,7.90364.12645,11.85542.1401,3.95185-.01531,7.90371-.031,11.85549-.14223C176.5784,448.32769,180.53019,448.21009,184.482,447.95906Z"></path><rect width="57.542" height="5.818" x="132" y="406.644" fill="#4f66d0" rx="1.571" transform="rotate(-180 160.771 409.553)"></rect><rect width="500" height="2" x="100" y="476.448" fill="#935b50"></rect><rect width="20.64" height="20.64" x="310.356" y="90.997" fill="#dc8758" rx="5.379"></rect><polygon fill="#dc8758" points="264.625 477.448 256.266 477.448 290.146 325.161 307.214 329.756 264.625 477.448"></polygon><polygon fill="#dc8758" points="377.748 477.448 386.107 477.448 352.226 325.161 335.159 329.756 377.748 477.448"></polygon><rect width="276.075" height="242.898" x="183.101" y="103.181" fill="#ffe3cb" rx="3.505"></rect><rect width="96.299" height="13.146" x="272.989" y="337.042" fill="#dc8758" rx="2.779"></rect><path fill="#6c7fd8" d="M328.34342,248.15966l18.89891-45.22238a4.50834,4.50834,0,0,1,8.2041-.25363l18.42882,37.41608a4.50834,4.50834,0,0,0,8.05877.05979l29.01717-56.77272a4.50835,4.50835,0,0,1,8.10845.164l29.79187,64.60888"></path><path fill="#f73c4f" d="M302.984,248.15966l18.89891-45.22238a4.50834,4.50834,0,0,1,8.20409-.25363l18.42882,37.41608a4.50835,4.50835,0,0,0,8.05878.05979l29.01716-56.77272a4.50835,4.50835,0,0,1,8.10845.164l29.79187,64.60888"></path><path fill="#ffba55" d="M381.934,240.15951a4.50827,4.50827,0,0,1-8.0587-.05978L365.4,222.8924l-8.82545,17.26711a4.50826,4.50826,0,0,1-8.05869-.05978l-9.09072-18.45686-11.08168,26.5168h95.14868l-21.64977-46.95123Z"></path><circle cx="247.073" cy="187.791" r="29.777" fill="#ffba55"></circle><path fill="#f73c4f" d="M247.07273,187.79129l-29.64221-2.82676a29.77669,29.77669,0,0,1,53.002-15.63861Z"></path><path fill="#6c7fd8" d="M247.07273,187.79129,265.04708,211.531a29.7767,29.7767,0,0,1-47.599-26.74525Z"></path><circle cx="293.583" cy="139.189" r="18.529" fill="#ffba55"></circle><path fill="#f73c4f" d="M293.58278,139.18908l2.71357,18.329a18.52882,18.52882,0,0,1-17.35308-29.68694Z"></path><path fill="#6c7fd8" d="M293.58278,139.18908l11.66064-14.39953a18.52882,18.52882,0,0,1-9.05769,32.74461Z"></path><rect width="6.193" height="53.515" x="201.058" y="262.671" fill="#f73c4f"></rect><rect width="6.193" height="39.393" x="216.542" y="276.793" fill="#f73c4f"></rect><rect width="6.193" height="60.094" x="232.027" y="256.092" fill="#f73c4f"></rect><rect width="6.193" height="67.637" x="247.511" y="248.549" fill="#f73c4f"></rect><rect width="6.193" height="53.515" x="262.996" y="262.671" fill="#f73c4f"></rect><rect width="6.193" height="26.305" x="278.48" y="289.881" fill="#f73c4f"></rect><rect width="6.193" height="47.011" x="293.965" y="269.175" fill="#f73c4f"></rect><path fill="#f73c4f" d="M308.52,316.96027H190.71436a.77441.77441,0,1,1,0-1.54882H308.52a.77441.77441,0,0,1,0,1.54882Z"></path><rect width="1.364" height="18.296" x="216.261" y="160.37" fill="#f73c4f" transform="rotate(-45.724 216.943 169.517)"></rect><polygon fill="#ffba55" points="298.163 229.841 288.333 229.841 266.186 201.598 267.26 200.756 288.997 228.476 298.163 228.476 298.163 229.841"></polygon><rect width="14.737" height="1.365" x="193.199" y="157.332" fill="#f73c4f"></rect><rect width="14.737" height="1.365" x="193.199" y="161.589" fill="#f73c4f"></rect><rect width="12.772" height="1.365" x="288.665" y="232.479" fill="#ffba55"></rect><polygon fill="#fafafa" points="295.502 157.631 292.939 139.563 278.521 128.376 279.366 127.286 294.227 138.815 296.869 157.438 295.502 157.631"></polygon><rect width="18.529" height="1.379" x="290.149" y="131.3" fill="#fafafa" transform="rotate(-51.036 299.413 131.99)"></rect><rect width="46.687" height="1.297" x="333.297" y="142.947" fill="#ffba55"></rect><rect width="46.687" height="1.297" x="333.297" y="148.374" fill="#ffba55"></rect><rect width="46.687" height="1.297" x="333.297" y="153.801" fill="#ffba55"></rect><rect width="46.687" height="1.297" x="333.297" y="159.229" fill="#ffba55"></rect><rect width="46.688" height="1.955" x="401.808" y="273.389" fill="#f73c4f"></rect><rect width="46.688" height="1.955" x="401.808" y="278.816" fill="#f73c4f"></rect><rect width="46.688" height="1.955" x="401.808" y="284.243" fill="#f73c4f"></rect><rect width="46.688" height="1.955" x="401.808" y="289.671" fill="#f73c4f"></rect><circle cx="212.325" cy="96.604" r="24.052" fill="#ffba55"></circle><path fill="#6c7fd8" d="M224.46808,81.42855a1,1,0,0,0-1-1H203.18156a1,1,0,0,0-1,1v.36255a1,1,0,0,0,1,1h7.42233a6.7408,6.7408,0,0,1,6.338,4.4701,1.0085,1.0085,0,0,1-.93988,1.35748h-12.8204a1,1,0,0,0-1,1v.36252a1,1,0,0,0,1,1H215.7753a1.008,1.008,0,0,1,.90145,1.449,6.7379,6.7379,0,0,1-6.07286,3.82728h-6.24105a1,1,0,0,0-1,1V98.2741a1,1,0,0,0,.20519.60686l11.53233,15.10412a1,1,0,0,0,1.40144.18812l.28817-.21989a1,1,0,0,0,.18813-1.40189L207.56679,100.227a1,1,0,0,1,.79478-1.60691l3.63462,0a1.10715,1.10715,0,0,0,.26884-.03282,9.44176,9.44176,0,0,0,7.15939-6.84855,1.03069,1.03069,0,0,1,1.011-.7575h3.03268a1,1,0,0,0,1-1v-.36252a1,1,0,0,0-1-1h-2.943a.98044.98044,0,0,1-.97512-.77613,9.008,9.008,0,0,0-2.51193-4.75211c-.10578-.10578-.22008-.19946-.33011-.29934h6.7602a1,1,0,0,0,1-1Z"></path><circle cx="342.361" cy="304.192" r="21.685" fill="#ffba55"></circle><path fill="#4f66d0" d="M337.35693,315.04621h-.01953a2.001,2.001,0,0,1-1.44238-.63574l-7.18555-7.69922a1.9996,1.9996,0,1,1,2.92383-2.72852l5.75244,6.16309,15.73047-16.20117a2,2,0,1,1,2.86914,2.78711l-17.19336,17.708A2.00162,2.00162,0,0,1,337.35693,315.04621Z"></path><circle cx="418.151" cy="121.74" r="23.143" fill="#ffba55"></circle><path fill="#6c7fd8" d="M427.22,119.02025h-1.81483v-3.62968a7.2538,7.2538,0,0,0-14.50759,0v3.62968h-1.81483a1.81124,1.81124,0,0,0-1.81484,1.81483v12.69827a1.80651,1.80651,0,0,0,1.81484,1.80928H427.22a1.80651,1.80651,0,0,0,1.81484-1.80928V120.83508A1.81124,1.81124,0,0,0,427.22,119.02025Zm-9.06859,9.97322a2.71947,2.71947,0,1,1,2.71946-2.71946A2.71917,2.71917,0,0,1,418.15138,128.99347Zm3.62967-9.97322h-7.25934v-3.62968a3.62967,3.62967,0,1,1,7.25934,0Z"></path><path fill="#1e1d22" d="M552.79993,160.473s-2.57762-5.97971,11.97963-4.40341,13.647,6.77883,10.61276,28.89476C575.39232,184.96437,553.37873,194.98575,552.79993,160.473Z"></path><path fill="#f9977a" d="M556.61219,192.65094l1.54564,15.79481L579.96,214.545l-3.6434-21.60365-.92428-7.97682s-13.121.349-6.82551-6.94388c2.36017-2.734,2-8.68983-1.84331-5.47619,0,0-5.14688,1.94524-5.5974-2.66774-.45054-4.61271.66684-6.51624.66684-6.51624s-6.28445-.36667-8.993-2.88737l-2.31573,2.83483a5.83713,5.83713,0,0,0-1.23844,4.64545l.17324,1.04746-5.18814,5.30645a1.21278,1.21278,0,0,0-.06966,1.62134c.28427.34422.67054.84076,1.19268,1.55693a4.653,4.653,0,0,1,.62892,3.802l5.70527-.014a7.181,7.181,0,0,1-2.20575,3.21134c-1.52255,1.092-3.88447,1.15667-3.88622,1.517C545.5821,188.87344,546.74776,194.569,556.61219,192.65094Z"></path><path fill="#1e1d22" d="M556.07186,169.55272a.70522.70522,0,0,1-.7878-.48777c-.73131-2.36723-4.42986-3.72993-5.79347-4.05492a.7054.7054,0,1,1,.32766-1.37223c.2318.0558,5.69728,1.39792,6.81322,5.01086a.70538.70538,0,0,1-.46556.88185A.69363.69363,0,0,1,556.07186,169.55272Z"></path><path fill="#dd765e" d="M563.736,187.676c-1.972,3.28153-7.12366,4.97486-7.12366,4.97486l.97077,9.92178C560.27878,198.57313,563.736,187.676,563.736,187.676Z"></path><path fill="#1e1d22" d="M551.68806,171.364a1.21713,1.21713,0,0,0,0-2.43281,1.21713,1.21713,0,0,0,0,2.43281Z"></path><path fill="#f9977a" d="M532.78815,266.26564l-6.78259-5.22338a6.57606,6.57606,0,0,0-3.32757-1.33091c-2.1201-.22279-5.53023-.68622-7.02232-1.46952-1.44778-.76-2.17854-.10006-1.439,1.35827.4353.85837,1.96763,1.98937,5.98088,3.32712l-3.49211.89367a3.85518,3.85518,0,0,1-3.05823-.50337l-3.84479-2.50144a1.17639,1.17639,0,0,0-1.53132.21652l-.00023.00027a1.1764,1.1764,0,0,0,.21748,1.73489l6.94,4.83324s-.66768,5.723,4.67377,6.963,12.686-.95383,12.686-.95383Z"></path><polygon fill="#f73c4f" points="511.727 285.583 534.799 284.119 511.052 250.473 488.498 252.008 511.727 285.583"></polygon><path fill="#f9977a" d="M534.90265 273.98253l-12.00428-10.53359s-6.46339-1.98555-10.18485-3.52417a5.27283 5.27283 0 00-6.01126 1.55237c-1.39218 1.667-1.34246 3.34966 2.52968 6 5.79134 3.96389 8.74317 5.42486 10.48756 5.94912.28546.08579 1.18948.42911 2.064.76753a8.96364 8.96364 0 004.00155.57109zM509.20171 213.18962l-7.6825-3.77709a6.5761 6.5761 0 01-2.66408-2.39722c-1.13652-1.80355-3.05886-4.65808-4.42077-5.6506-1.32146-.96305-1.05224-1.9102.58279-1.891.96236.0113 2.654.8863 5.62714 3.89563l-.74108-3.52765a3.85524 3.85524 0 00-1.8027-2.52119l-3.94269-2.34408a1.17641 1.17641 0 01-.48229-1.46944l.00014-.00032a1.1764 1.1764 0 011.65248-.57137l7.40206 4.09071s4.8392-3.12739 8.31145 1.11669 4.74891 11.80218 4.74891 11.80218z"></path><path fill="#dd765e" d="M519.4187 265.21467a14.86075 14.86075 0 01-2.66992-.68262 22.47962 22.47962 0 01-2.53485-1.04712 18.74747 18.74747 0 01-2.38071-1.38183 9.68106 9.68106 0 01-2.07147-1.83887l4.89151 2.323A43.69412 43.69412 0 01519.4187 265.21467zM517.87952 267.42658a15.36418 15.36418 0 01-2.95075-.6311 20.8476 20.8476 0 01-2.81177-1.0896 14.905 14.905 0 01-2.60583-1.562 6.28242 6.28242 0 01-2.01672-2.28028 12.979 12.979 0 002.44323 1.62671c.85532.45923 1.72068.905 2.61029 1.314C514.30994 265.66047 516.11023 266.44685 517.87952 267.42658zM515.95465 269.13972a11.13254 11.13254 0 01-2.48956-.46192 17.09849 17.09849 0 01-2.36063-.887 11.57753 11.57753 0 01-4.06619-2.9812c.7883.33642 1.52408.69336 2.2666 1.04248l2.22376 1.03369C513.00677 267.5904 514.49158 268.27009 515.95465 269.13972zM505.53339 199.0478a3.19741 3.19741 0 01-1.66922-.65039 3.55943 3.55943 0 01-1.134-1.37146 2.01989 2.01989 0 01.95.14453 3.3051 3.3051 0 01.7778.42309A2.90055 2.90055 0 01505.53339 199.0478zM507.24475 198.205a3.77933 3.77933 0 01-1.5163-.86218 6.37926 6.37926 0 01-.554-.57519c-.1817-.20386-.32038-.41919-.56171-.6687a1.24938 1.24938 0 01.9917.01757 2.53561 2.53561 0 01.79022.48133A2.495 2.495 0 01507.24475 198.205zM509.33542 198.13239a3.38827 3.38827 0 01-.78018-1.008c-.07126-.15247-.13553-.29261-.19446-.4469a2.85051 2.85051 0 00-.31558-.56775.8223.8223 0 01.83029-.0188 1.32767 1.32767 0 01.56988.579 1.47013 1.47013 0 01.15482.731A1.21939 1.21939 0 01509.33542 198.13239z"></path><path fill="#d87e6a" d="M575.26187,448.99386s3.33816,24.66784,1.542,25.46511-47.1804,4.2942-39.00284-.03318l13.59706-6.30648c4.85692-2.25271,8.729-7.28417,8.6819-12.63788l.70041-7.52712Z"></path><path fill="#ffba55" d="M587.12417,288.25365l.39842,3.68911a56.755,56.755,0,0,1-5.16757,30.45807h0v16.59668l-2.68076,109.60114a3.57687,3.57687,0,0,1-3.5758,3.48941h-18.806a3.57689,3.57689,0,0,1-3.55448-3.1772l-7.49135-66.62476a209.38369,209.38369,0,0,1-1.18066-30.78849l2.23429-63.244Z"></path><path fill="#6c7fd8" d="M517.52567,206.24156c8.91052,4.75382,21.14385,20.20377,21.14385,20.20377l15.42573-14.814,3.46012-8.65031,10.75589-2.93339c2.63475-.71856,6.24172-2.907,7.69964-5.21631a2.57008,2.57008,0,0,0,.3057-1.89q-.0116-.07595-.02446-.15316l6.48022,13.40335c6.05835,10.07455,7.89591,21.69336,7.02253,33.41677l-2.67072,48.64539s-43.49473,5.34143-41.58708,0l.34664-8.58589-4.73425-.57091-7.63758-1.55578a3,3,0,0,1-2.38543-3.24683l.78958-7.67022a3,3,0,0,1,2.87716-2.69089l8.07317-.28832,4.00607-3.243.42783-13.555-2.36644.40612a19.56382,19.56382,0,0,1-17.59253-6.80463L509.254,216.22645a2.9711,2.9711,0,0,1-.431-2.7902,13.562,13.562,0,0,1,5.81913-7.11312A2.94783,2.94783,0,0,1,517.52567,206.24156Z"></path><path fill="#065082" d="M579.38843 200.56428c-1.48413.95764-2.97882 1.89575-4.50208 2.78088-1.51666.89746-3.03351 1.79443-4.57269 2.65027-3.07477 1.718-6.17474 3.38965-9.31567 4.98535l-.42511.21607-.16071-.42115-1.47876-3.87585c-.24829-.64527-.46728-1.30286-.70239-1.95374-.23432-.65112-.46247-1.30493-.67566-1.965.32733.61157.63971 1.22949.94592 1.8501.30536.621.62683 1.2351.919 1.86169l1.76428 3.75464-.58557-.20508c3.05572-1.75317 6.1524-3.43091 9.27423-5.06189 1.5592-.81885 3.14062-1.59631 4.72235-2.37341C576.17059 202.01777 577.77423 201.28132 579.38843 200.56428zM546.87244 260.40168a33.324 33.324 0 014.554-1.57349q2.32106-.65368 4.66925-1.20654 4.69372-1.11146 9.43421-2.012l-.17914.22143-.83344-19.17822a65.52518 65.52518 0 01.11951-9.64136 25.47364 25.47364 0 012.47577-9.3789 11.33618 11.33618 0 013.12744-3.83448 9.40021 9.40021 0 014.63361-1.821 11.033 11.033 0 019.08667 3.33569A11.95939 11.95939 0 01586.575 219.524a36.71471 36.71471 0 011.43146 4.64136 60.5654 60.5654 0 011.4455 9.55615 108.98254 108.98254 0 01-.41907 19.24659c-.311 3.1936-.74805 6.37231-1.25067 9.53857a11.55874 11.55874 0 01-4.788 8.32056 10.76068 10.76068 0 01-2.16205 1.19458l-2.24371.87793c-1.49829.56909-3.00281 1.12182-4.51843 1.64306-3.02924 1.04639-6.08753 2.01587-9.1919 2.81787a83.89668 83.89668 0 01-9.41455 1.9314 42.265 42.265 0 01-9.57989.37573 42.15521 42.15521 0 009.54736-.59057 83.57249 83.57249 0 009.33264-2.136q4.60263-1.32386 9.111-2.95044c1.503-.53833 2.99476-1.10815 4.47974-1.69409a18.00682 18.00682 0 004.22809-2.04541 10.77831 10.77831 0 004.37964-7.873c.469-3.157.90362-6.31982 1.19531-9.49634a108.08074 108.08074 0 00.337-19.084 59.96308 59.96308 0 00-1.4585-9.39575 35.7593 35.7593 0 00-1.37537-4.52881 10.98 10.98 0 00-2.38971-3.89429 10.09252 10.09252 0 00-8.297-3.08886 8.48714 8.48714 0 00-4.19275 1.62524 10.45824 10.45824 0 00-2.89319 3.53027 25.01957 25.01957 0 00-2.42822 9.05127 64.75779 64.75779 0 00-.23694 9.53223l.56164 19.18628.00556.19043-.18494.03125q-4.74573.79761-9.46143 1.79614-2.35518.50244-4.68853 1.09961A33.239 33.239 0 00546.87244 260.40168zM554.09528 211.63142c-.45527 1.44116-.96991 2.85888-1.45319 4.28881-.51636 1.42066-1.03534 2.82544-1.46875 4.25953a65.90251 65.90251 0 00-2.07617 8.719 88.64448 88.64448 0 00-.93988 8.93677l-.3758 4.5083c-.16174 1.501-.28918 3.00366-.4812 4.50293-.03442-1.51123-.00421-3.0188-.0083-4.52857l.09717-4.523c.02728-1.50732.08185-3.01147.18005-4.53344.11377-1.51587.29963-3.02661.54218-4.52783a48.40957 48.40957 0 012.3371-8.80079C551.51849 217.08308 552.80762 214.36677 554.09528 211.63142zM538.66949 226.44538c-.29693 1.8252-.62408 3.563-.82482 5.32593-.12262.87768-.17933 1.75854-.23816 2.64526-.06409.89087-.04334 1.77759-.08161 2.71167a8.70547 8.70547 0 01-.69842-2.68994 12.236 12.236 0 01.026-2.78662 14.00065 14.00065 0 01.6123-2.70947A9.93353 9.93353 0 01538.66949 226.44538z"></path><path fill="#065082" d="M574.9151 263.45393c-1.45862-1.48438-2.853-2.92676-4.36853-4.23633a28.90081 28.90081 0 00-2.35895-1.84082 28.00109 28.00109 0 00-2.62-1.55347 10.30687 10.30687 0 015.633 2.63867 15.74833 15.74833 0 012.13867 2.29566A11.76542 11.76542 0 01574.9151 263.45393zM584.2627 274.51838a9.86027 9.86027 0 01-1.21253 3.00537 11.44134 11.44134 0 01-2.061 2.55591 8.84633 8.84633 0 01-2.83106 1.72388 6.78784 6.78784 0 01-3.243.3457 13.20925 13.20925 0 002.931-1.061 12.48631 12.48631 0 002.47272-1.74975A25.80051 25.80051 0 00584.2627 274.51838zM583.1181 280.62312a6.90509 6.90509 0 01-1.84405 2.531 10.13554 10.13554 0 01-2.66425 1.72144 11.12874 11.12874 0 01-3.05542.80713 11.65321 11.65321 0 01-1.56726.07421 13.61109 13.61109 0 01-1.55194-.17407c.50964-.1355 1.01312-.207 1.50873-.31494.49182-.13086.98816-.20337 1.46582-.35205a20.27271 20.27271 0 002.80072-.9563A15.80123 15.80123 0 00583.1181 280.62312zM542.86639 263.64484a35.59127 35.59127 0 01.97516 6.25757 35.18825 35.18825 0 01-.02136 6.333 35.19474 35.19474 0 01-.97516-6.25757A35.59224 35.59224 0 01542.86639 263.64484zM521.42719 208.80134a38.43451 38.43451 0 01-3.97693 5.24267 37.96439 37.96439 0 01-4.725 4.57984 37.9973 37.9973 0 013.97693-5.24268A38.40147 38.40147 0 01521.42719 208.80134z"></path><path fill="#e6952a" d="M565.56757 290.25959c-.32788 5.89819-.734 11.78979-1.10584 17.68457L563.227 325.61823c-.41779 5.89087-.82629 11.78247-1.30377 17.66846l-1.38086 17.66211.00049-.11475.85827 11.39771.78437 11.40283 1.56628 22.80591 1.40631 22.81763c.43213 7.60839.8736 15.2163 1.235 22.82983-.73792-7.58618-1.39582-15.17847-2.063-22.77l-1.89179-22.78247-1.73181-22.79395-.86468-11.397L559.0509 360.942l-.00415-.05981.0047-.05518 1.50446-17.6521c.48431-5.88549 1.03753-11.76513 1.5816-17.64575l1.65058-17.64014C564.37805 302.01228 564.93365 296.13264 565.56757 290.25959zM582.355 322.401a5.09648 5.09648 0 01-1.02276 1.82153 6.48269 6.48269 0 01-1.56458 1.36939 4.54291 4.54291 0 01-2.07721.70288 2.06447 2.06447 0 01-2.01233-.88941 3.03916 3.03916 0 001.75537-.30835 17.16766 17.16766 0 001.513-.84228c.5116-.31739 1.03229-.6482 1.594-.9607A11.99752 11.99752 0 01582.355 322.401z"></path><path fill="#e6952a" d="M554.09528 290.62751c.3435 2.81567.5213 5.6311.63433 8.44678.05768 1.40771.09247 2.81567.12073 4.22339.0047 1.40771.04456 2.81543.02045 4.22338l-.16016-.47192c1.48712 1.96509 2.9505 3.94849 4.35108 5.98023 1.405 2.02807 2.77636 4.082 4.03326 6.22387-1.743-1.769-3.37152-3.62573-4.96637-5.5083-1.59936-1.8789-3.13586-3.8064-4.64862-5.75171l-.15558-.20019-.00464-.272c-.02417-1.40795.01569-2.81567.02045-4.22338.0282-1.40772.063-2.81568.12067-4.22339C553.57391 296.25861 553.75171 293.44318 554.09528 290.62751zM576.6264 366.41047a11.87366 11.87366 0 01.23285 4.90063 15.98387 15.98387 0 01-1.43475 4.75122 16.45288 16.45288 0 01-2.79718 4.09229 15.86365 15.86365 0 01-1.80115 1.68188 18.42522 18.42522 0 01-2.04407 1.35083c.477-.67724 1.02247-1.25634 1.49781-1.89477.46423-.647.97607-1.24024 1.39227-1.90479l.65674-.96411.59338-.99951a21.6314 21.6314 0 001.08759-2.03979 26.38967 26.38967 0 001.65527-4.32447A29.58457 29.58457 0 00576.6264 366.41047zM577.348 378.14729a16.05356 16.05356 0 01-3.90576 8.44677 10.25084 10.25084 0 01-3.98773 2.73755 7.28318 7.28318 0 01-4.73-.02441 11.32424 11.32424 0 004.24872-1.10205 12.99161 12.99161 0 003.31585-2.67456 24.89976 24.89976 0 002.67877-3.4939C575.78394 380.78571 576.56079 379.49055 577.348 378.14729z"></path><rect width=".396" height="11.803" x="502.532" y="234.267" fill="#7ca1b1"></rect><polygon fill="#7ca1b1" points="520.465 256.006 520.307 255.641 532.709 250.29 532.867 250.656 520.465 256.006"></polygon><rect width="12.752" height=".397" x="510.628" y="239.97" fill="#7ca1b1" transform="rotate(-67.727 517.004 240.168)"></rect><path fill="#6c7fd8" d="M535.86683,477.43823c-2.24137-3.09661-.62927-6.88438,3.643-8.60633L557.48,461.58905a1.97389,1.97389,0,0,1,1.91758.32247l6.408,6.05208a1.98328,1.98328,0,0,0,2.01665.28433l7.5532-3.16836c1.02474-.42985,2.32513.09406,2.32252.93573l-.032,10.30166c-.00186.598-.6908,1.08068-1.53879,1.078l-40.25353.0527Z"></path></svg>