<svg xmlns="http://www.w3.org/2000/svg" viewBox="0 0 1200 1200" id="sales-team"><path fill="#CCE9FF" d="M232 377.77c77.24-99 192.15-152.87 317-154.49 61.53-.81 128.1 13.61 182.42 42.62 59.69 31.89 109 87.8 121 154.4 8.28 45.86 11.36 84 37.12 124.49 20.86 32.78 65.88 59.66 74.2 98.73 9.9 46.52-57.58 95.57-90.44 114.53C711.69 919.69 644.84 923.79 525.76 907c-64.38-9.08-136.1-117.14-185-162.65-22.59-21-39.83-48.73-46.77-78.94s3.36-67-15.24-94.29c-11.81-17.33-33.38-24.68-49.92-37.56-56.91-44.33-37.83-103.3 3.17-155.79z"></path><path fill="#F7F7F7" d="M732.03 156.43h242.46a4.01 4.01 0 0 1 4.01 4.01v170.55a4.01 4.01 0 0 1-4.01 4.01H732.03a4.01 4.01 0 0 1-4.01-4.01V160.44a4.01 4.01 0 0 1 4.01-4.01z"></path><path fill="#0B4870" d="M909.55 248.33h43.46c.851 0 1.54.689 1.54 1.54v9.33a1.54 1.54 0 0 1-1.54 1.54h-43.46a1.54 1.54 0 0 1-1.54-1.54v-9.33c0-.851.689-1.54 1.54-1.54z"></path><path fill="#2A94F4" d="M909.55 271.56h43.46c.851 0 1.54.689 1.54 1.54v9.33a1.54 1.54 0 0 1-1.54 1.54h-43.46a1.54 1.54 0 0 1-1.54-1.54v-9.33c0-.851.689-1.54 1.54-1.54z"></path><path fill="#FFBE55" d="M909.55 299.65h43.46c.851 0 1.54.501 1.54 1.119v6.777c0 .618-.689 1.119-1.54 1.119h-43.46c-.851 0-1.54-.501-1.54-1.119v-6.777c0-.618.689-1.119 1.54-1.119zM885.51 220.65c-12.667-36.023-52.138-54.956-88.161-42.289-36.023 12.667-54.956 52.138-42.289 88.161a83.236 83.236 0 0 0 1.96 5.008c15.279 34.995 56.034 50.978 91.029 35.699 33.294-14.536 49.659-52.359 37.461-86.579zm-47.64 72.09c-25.691 9.21-54.122-3.09-65-28.12-.45-1.05-.88-2.13-1.28-3.23-9.644-26.957 4.392-56.628 31.349-66.272 26.957-9.644 56.628 4.392 66.272 31.349s-4.392 56.628-31.349 66.272l-.002.001h.01z"></path><path fill="#0B4870" d="m770.93 228.49-16.52-5.16c8.816-28.128 34.467-47.597 63.93-48.52l.52 17.3c-22.092.689-41.325 15.288-47.93 36.38z"></path><path fill="#2A94F4" d="M772.88 264.62 757 271.53a78.848 78.848 0 0 1-1.71-4.31 68.905 68.905 0 0 1-.9-43.89l16.52 5.16a51.642 51.642 0 0 0 .67 32.9c.42 1.1.85 2.18 1.3 3.23z"></path><path fill="#FCD2B1" d="M843.49 284.94s-3.35-5.86 2-21.57c5.14-15.19 22.92-13.81 28.57-4.08 5.65 9.73 3.74 15.78-4.58 26.76s-22.54 3.95-25.99-1.11zM884.79 557.17s.88 6.45 1 7.42 9.79-.57 9.79-.57l.78-7.68s-10.36-.08-11.57.83z"></path><path fill="#0B4870" d="M885.67 563.77s-3.06 3.89-6 5.58-7.62 2.36-9.38 4.12c-1.26 1.26-4.61 6.71 7.71 6.6s18.26.77 19.58-1.31c1.32-2.08-1.91-15.43-1.91-15.43s-3.05.85-10 .44zM881.53 394.56s5 15.41 4.31 28.7 2.56 27.83 3.88 41.71c1.47 15.48 7.47 52.11 7.69 60.39s-.93 34.72-.93 34.72l-12 .28s-10.09-64-12.71-70.58-15.58-53.13-16-58.35 25.76-36.87 25.76-36.87z"></path><path fill="#0B4870" d="M831.7 393s-7.29 40.77-8.17 48.9-1.45 39.36-1.88 44.45-2.91 66.51-5.23 74.06h13.4s13.76-44.66 13.76-65.79 9.11-45.93 15-59.88 19.34-14.27 23-40.13c-.05-.05-44.98-9.86-49.88-1.61z"></path><path fill="#FCD2B1" d="M848.35 289.09s1.51 4.4 0 7.54c-1.51 3.14 19.31 1.25 19.31 1.25s-.94-6.49 1.78-11.83-21.09 3.04-21.09 3.04z"></path><path fill="#2A94F4" d="M882.5 397.92s-7.49 7.69-51.47-1.2l.67-3.77 50 1.88.8 3.09z"></path><path fill="#FCD2B1" d="M845.2 297.65s-7.69.78-9.89 1.2c-2.2.42-17-2.65-20-3-3-.35-16-9.18-16.39-10.23s-7.87-19.92-8.29-24-7.26-2-6.67.84c1.09 5.26 2.5 18 3.28 21.73.83 4 3.06 13.05 4.32 14.17s12.91 10 24.31 13.74a97.32 97.32 0 0 1 20 9.31h56.21s21.87-31.25 22.34-36-15.27-36-18.41-39.94-7.68 1.29-7.68 1.29 9.41 27.6 10.66 31.52c1.25 3.92-10.99 21.25-14.32 21.3-3.33.05-11.95-1.05-15.77-1.2a26.725 26.725 0 0 1-7.85-1.84l-15.85 1.11z"></path><path fill="#2A94F4" d="M821 318.52s6.88 4.58 7.51 12.42a162.35 162.35 0 0 0 4.4 24.49c1.25 4.24-1.1 35-1.42 37.2s43.51 7.42 50.23 2.2c0 0 1.89-28.72 2.67-36.89.78-8.17 4.55-27.94 5.81-30.6 1.26-2.66 16.48-24 17.11-26.85 0 0-7.88-12.55-13.53-12.71 0 0-9 10.52-11.9 11S861 296 861 295.92c0-.08-2 2.67-12.37-.47 0 0-12.39 1.4-14.41 1.65-2.44.32-19.41-2.12-19.41-2.12s-6.81 11.49-5.62 17.3l11.81 6.24z"></path><path fill="#FCD2B1" d="M791 264.11s-1.53-7.27.32-9.36c1.05-1.19 3.58-4.34 3.81-4.8s3-2 3-2.78-2.66-1.67-5 .47-3.76 2.6-4.68 2.37-2.26-7.92-2.37-9.83-.86-6.94-2-6.59-1.13 2.54-1.13 2.54-1.39-3.82-2.32-3.06c-.93.76-.81 2.6-.81 2.6s-1.73-2.14-2.19-.58a5.316 5.316 0 0 0 0 3s-1.8-1-1.91 1.44.52 9.54 1.79 12.09 6 9.2 6.6 11.8c.6 2.6 6.89.69 6.89.69zM889.83 251.34s-5.23-8.79-7-9.58-4.29-1.23-6.49-2.8-5.1-2.88-4.94-3.4c.16-.52 2.74-.31 5.52.89 2.78 1.2 4 .62 4.25 0s-1.48-5.07-2.32-6.11c-.84-1.04-6.8-7-5.8-7.94s4.86 2.41 5.49 3.09c0 0-3.09-6.49-1.88-6.8 1.21-.31 3.45 2 3.45 2s-.26-5.54 5.7 3.46c0 0-1.25-3 .58-2s3.61 6.59 4.19 9.42 3.18 11.83 5.41 14-6.16 5.77-6.16 5.77z"></path><path fill="#0B4870" d="M869.44 286.05s-2.75.25-8.61-1.77-6.3-12.27-7.57-11.06c-2.58 2.48-5 .77-6-.7 0 0 2.86-3.77 1.53-5.58a14.075 14.075 0 0 0-3.48-3.14c-3.64-2.88-2.76-25.31 22.88-10.81 21.24 12.01 1.25 33.06 1.25 33.06z"></path><path fill="#FCD2B1" d="m848.35 296.63.66-2.88s12-.24 18.5.71l.69 3.43s-8.36 3.79-19.85-1.26zM851.3 270.71c1.09-1.81 5.11-3 5.59 2.09.36 4-7.19 8.3-7.26 4.61a11.203 11.203 0 0 1 1.67-6.7z"></path><path fill="#2A94F4" d="M267.33 282.55s-2.5 35 4.35 39.25c4.29 2.63 21.4 11.49 20.89 13.15-.51 1.66-9.66 14.79-9.66 14.79s-32.86-21.63-33.91-28.45c-1-6.66 1.62-51.32 6.14-53.38 3.38-1.54 5.16-.27 9.43 2.9 5.97 4.44 2.76 11.74 2.76 11.74zM263.51 537.63l-1.15 8.15c-.15 1.06-11.36-.63-11.36-.63l-.91-8.44s12.02-.09 13.42.92z"></path><path fill="#0E538C" d="M262.48 544.88s3.56 4.27 7 6.14 8.85 2.6 10.89 4.53c1.47 1.39 5.35 7.38-8.95 7.26-14.3-.12-21.2.85-22.73-1.45-1.53-2.3 2.22-17 2.22-17s3.39 1.26 11.57.52z"></path><path fill="#2A94F4" d="M319.76 537.63s-1 7.09-1.16 8.15c-.16 1.06-11.36-.63-11.36-.63l-.91-8.44s12.02-.09 13.43.92z"></path><path fill="#0E538C" d="M318.73 544.88s3.56 4.27 7 6.14 16.12 3.39 18.15 5.32c1.47 1.39 3.92 7-16.2 6.47-14.31-.37-21.2.85-22.74-1.45-1.54-2.3 2.22-17 2.22-17s3.19 1.34 11.57.52zM267.54 355.39s-10.56 16.78-9.77 31.95-.94 31.36-2.53 47.21c-1.76 17.66-6.58 54.41-6.84 63.86s.34 45 .34 45l18.32-.14s6.5-71.82 9.65-79.28 16.08-61.41 16.61-67.37c.53-5.96-25.78-41.23-25.78-41.23z"></path><path fill="#0E538C" d="M323.13 357.67s4.17 41.23 5.22 50.51.34 49.5.86 55.3c.52 5.8-3.51 67.16-4.5 78.85l-20.14-.13s-1.39-49.64-1.39-73.75-6.18-52.19-13.27-68.1-23.32-16.29-27.68-45.81c0 0 55-6.23 60.9 3.13z"></path><path fill="#FCD2B1" d="M278.7 213.94s12.58-8.41 21.42.6c8.84 9.01 13.17 30.17 6.83 34.39-6.34 4.22-17.11 5.34-22.22-.4-5.11-5.74-10.56-14.47-11.9-20.85-1.34-6.38 2.68-11.05 5.87-13.74z"></path><path fill="#FCD2B1" d="M302.67 250.36s-.16 8.84.81 10.73c.97 1.89-18.36 1.91-18.36 1.91a126.988 126.988 0 0 0-4.55-18.91c-2.97-8.65 22.1 6.27 22.1 6.27z"></path><path fill="#FFBE55" d="M281.06 244s1.8 1.84 6.91-.24 9.91-10.66 11.94-12c2.03-1.34 1.75-2.6 1.75-2.6l1.86 1.7 2.39-.41s-3.63-5.8-1-9.14-8.18-19.64-23.78-9.68c0 0-12.22 6.68-10 14 2.22 7.32 6.13 15.37 9.93 18.37z"></path><path fill="#CCE9FF" d="M304.63 260.86s-.06-3.6-1.69-4c-1.63-.4-18-1.92-20-1.13V260s3.83 2.35 21.69.86z"></path><path fill="#FCD2B1" d="M300.67 226.54c-.59-1.18-4.6-4-4.91.11-.31 4.11 3.94 8.51 5.53 7.67 1.59-.84.88-4.8-.62-7.78z"></path><path fill="#FFBE55" d="M275.06 216.1s-18 4.83 5.27 27.17l-5.27-27.17z"></path><path fill="#FCD2B1" d="m435.83 311.77-18.34-.16c1.58-.93 4.14-2.58 3.58-3.34-.81-1.07-6 1.29-8.11 1.51-1.94.19-5.18-.06-7.64.84l-5.8 2.47 5.31 4.91s9.59 1.38 12.4 1.57c4.57.33 18.53-5.11 18.76-5.94.42-1.48-.16-1.86-.16-1.86z"></path><path fill="#2A94F4" d="M328.57 265.85c-11.67-2-23.94-5-23.94-5l-21.72-.85s-19.93 4.39-27.78 7.94c-.75.34-.75 17.78-2.79 22.36l6.5 13.73s3.76 27.2 4.54 39.29c.36 5.56-7.75 52.07-7.75 52.07a150.094 150.094 0 0 0 23.52 4.2c14.82 1.63 51.85-.6 52.09-2.34.24-1.74-7.17-65.19-7.5-68.48-.51-5 1.45-28.34 1.45-28.34 2.8 3.75 18.94 17.82 26.83 22.29 5.6 3.18 19.36 1.24 23.41.83 8.77-.9 33-2.63 33.47-3.49.37-.52-1.4-9.35-2.41-9.69s-32.16-1.84-40-1.44c-3.19.17-13.57-11.42-13.57-11.42s-17.92-28.77-24.35-31.66zM391 236.06h57.41v50.37l-8.77-8.76H391z"></path><path fill="#CCE9FF" d="M393.41 178.06H336v50.37l8.76-8.76h48.65z"></path><path fill="#FFBE55" d="M182 744.79c8.82 16.51 28.35 19.56 40.54 34.25 5 6 9 13 15.66 17.29 10.28 6.69 24.32 5.46 36.06 1.43 8.23-2.83 16.64-7 25.27-5.45 7.79 1.35 13.83 7 21 10.19 20 8.92 43.07-1.88 61.06-10 8.7-3.93 17.3-8.53 23.62-15.55.38-.42 5.27-7.48 5.28-7.48l-77.26-8.34c-50.44-5.46-100.99-10.25-151.23-16.37v.03z"></path><path fill="#FFBE55" d="M182 744.79c.88.1 9.53-8.32 11.7-9.5a33.255 33.255 0 0 1 19.36-4c7.44.59 15.74 1.69 21.65-2.57 5-3.59 6.65-9.94 10.85-14.31 5.91-6.14 15.69-7.32 24.52-7 16.54.64 32.08 5.41 46.42 13 13.37 7.08 23.3 5.35 38.35 5.08 17.82-.32 27 10 38.58 20.59 5.28 4.81 10.34 8.71 13.8 15.12.25.48 3.24 8.24 3.25 8.24L182 744.79z"></path><path fill="#F5FAFA" d="M411.58 769.57a1.14 1.14 0 0 1-1.27.95l-228.48-24.66a1.1 1.1 0 0 1-1-1.19 1.12 1.12 0 0 1 1.27-.94l228.48 24.65a1.1 1.1 0 0 1 1 1.19z"></path><path fill="#F5FAFA" d="M352.74 763.22a1.324 1.324 0 0 1-.07.27 1.18 1.18 0 0 1-1.49.61c-2.21-.82-54.32-20.33-64.53-46.43a1 1 0 0 1 .68-1.38 1.17 1.17 0 0 1 1.47.64c9.87 25.21 62.69 45 63.22 45.17.471.16.77.625.72 1.12zM284.21 755.83a1.1 1.1 0 0 1-.87.92c-.37.08-37.19 8.81-39.67 29.22a1.12 1.12 0 0 1-1.26.94 1.1 1.1 0 0 1-1-1.19c2.66-21.89 39.82-30.7 41.4-31.06a1.15 1.15 0 0 1 1.39.79.992.992 0 0 1 .01.38z"></path><path fill="#0B4870" d="M155.42 597.5c15.64-7.21 38.66-16.22 55.32-10.89 8 2.55 15.88 6.77 24.56 7.48 10 .81 17.41-4.49 27-5 38.74-2.13 38.09 43.18 69.61 46.82 7.72.89 15.74-1.07 23.48-.29 9.93 1 18.46 6.46 24.47 13.25 11 12.43 18 28.55 22.07 43.9 2.76 10.39 8.56 19 8.14 30.22 0 .57-1.45 9.47-1.42 9.49L155.42 597.5z"></path><path fill="#0B4870" d="M155.43 597.51c4.86 2.67 3.55 19.66 4.42 24.25 2.1 11.06 6.6 22.71 14 31.81 4.92 6.09 12.32 11 21 11.65 3.23.25 6.66-.07 9.56 1.09 4.3 1.72 6.16 6.2 6.44 10.39 1 15.3 3 27.88 21.65 33.64 14 4.34 35.74 7.17 50.56 6.57 5.27-.21 10.83-.86 15.54 1 4.27 1.7 7.1 5.19 10.28 8.17 18.55 17.38 56.88 25.06 82.38 14.57.87-.36 17.71-8.06 17.43-8.21L155.43 597.51z"></path><path fill="#F5FAFA" d="M409.87 733.13a1.21 1.21 0 0 0-.43-1.82L156.25 596.36a1.68 1.68 0 0 0-2.09.47 1.21 1.21 0 0 0 .43 1.82l253.19 135a1.68 1.68 0 0 0 2.09-.52z"></path><path fill="#F5FAFA" d="M344.67 698.38a1.23 1.23 0 0 0-.83-1.95c-3-.74-73.25-17.84-107.15.77a1.271 1.271 0 0 0-.55 1.83 1.59 1.59 0 0 0 2.07.39c32.73-18 104-.62 104.67-.44a1.701 1.701 0 0 0 1.79-.6zM268.73 657.9a1.18 1.18 0 0 0 0-1.51c-.34-.34-29.73-34.61-13.73-56.39a1.21 1.21 0 0 0-.43-1.82 1.69 1.69 0 0 0-2.1.47c-17.08 23.42 12.53 58 13.81 59.46a1.63 1.63 0 0 0 2.11.19c.135-.113.25-.248.34-.4zM374.12 711.42a1.19 1.19 0 0 0 0-1.51c-.3-.34-29.64-34.6-13.72-56.44a1.19 1.19 0 0 0-.43-1.81 1.68 1.68 0 0 0-2.09.47c-17.08 23.42 12.53 58 13.8 59.46a1.64 1.64 0 0 0 2.11.19c.128-.102.239-.224.33-.36z"></path><path fill="#0B4870" d="m986.13 595.79.18-.16c-8.92-.93-14.73-6.05-24.93-3.09-7.42 2.16-14.25 6.19-21.63 8.46-12.87 4-22.63-3.44-35.74-.38-18.9 4.38-37.44 14.38-48.61 30.71-8.73 12.81-12.91 29.27-25 38.85-7.83 6.22-17.83 8.52-26.68 13-32.7 16.68-35.4 58.19-41.46 90.32-3.15 16.7 4 9.53 12.15 2.54l68.3-58.16c47.82-40.68 95.76-81.23 143.42-122.09z"></path><path fill="#0B4870" d="M986.13 595.79c1.08 7.83-3.18 13.27-4.2 20.53-.85 6 .79 12.49.05 18.71a69.812 69.812 0 0 1-16.24 37.13c-5.85 6.75-13.21 12.65-16.3 21.06-2.34 6.36-1.9 13.36-3.52 19.93-2.72 11.12-11.2 20.17-20.92 26-18.17 10.91-39.88 13.68-58.27 24.1-9.36 5.3-17.15 13.12-26.17 19-18.11 11.86-56.92 13.73-75.26 1.6 1.84 1.22 40.27-34.33 43-36.65l90-76.63c29.25-24.9 58.7-49.76 87.83-74.78z"></path><path fill="#F5FAFA" d="M764.17 784.82a1.49 1.49 0 0 1 .22-2.05l220.85-188.09a1.38 1.38 0 0 1 2 .17 1.48 1.48 0 0 1-.21 2L766.17 785a1.389 1.389 0 0 1-1.961-.134l-.039-.046z"></path><path fill="#F5FAFA" d="M821.05 736.38a1.49 1.49 0 0 1 .53-2.25c2.68-1.29 66.08-31.36 99.42-16.69a1.46 1.46 0 0 1-1.17 2.67c-32.2-14.17-96.46 16.33-97.1 16.64a1.4 1.4 0 0 1-1.68-.37zM887.3 680a1.459 1.459 0 0 1-.12-1.65c.24-.42 23.91-42.46 6.9-63.58a1.49 1.49 0 0 1 .21-2.05 1.39 1.39 0 0 1 1.962.125l.038.045c18.25 22.66-5.64 65.08-6.67 66.88a1.411 1.411 0 0 1-1.912.566l-.028-.016a1.139 1.139 0 0 1-.38-.32z"></path><path fill="#FFBE55" d="M1043.6 703.7c-15.16-10.26-37.75-23.6-55.94-20.18-8.7 1.64-17.61 5.13-26.76 4.63-10.55-.59-17.44-7.52-27.31-9.51-40-8.08-46.44 42-79.86 41.38-8.18-.15-16.23-3.5-24.42-3.78-10.5-.37-20.24 4.4-27.57 11-13.4 12.09-23.22 28.85-29.86 45.18-4.5 11.06-11.88 19.67-13.21 32.15-.06.63 0 10.66 0 10.67L1043.6 703.7z"></path><path fill="#FFBE55" d="M1043.6 703.71c-5.49 2.22-6.78 21.17-8.4 26.1-3.92 11.9-10.43 24.09-19.52 33-6.08 6-14.56 10.32-23.67 9.77-3.4-.2-6.92-1.07-10.13-.21-4.74 1.26-7.38 5.93-8.33 10.52-3.46 16.72-7.46 30.32-27.81 33.92-15.32 2.71-38.37 2.63-53.72-.21-5.46-1-11.15-2.55-16.35-1.18-4.71 1.25-8.21 4.68-12 7.5-22 16.44-63.19 19.25-88.12 3.92-.85-.53-17.2-11.5-16.88-11.63l284.93-111.5z"></path><path fill="#F5FAFA" d="M757.25 815.81a1.38 1.38 0 0 1 .74-1.94l284.92-111.55a1.7 1.7 0 0 1 2.11.83 1.38 1.38 0 0 1-.73 1.94L759.36 816.64a1.73 1.73 0 0 1-2.11-.83z"></path><path fill="#F5FAFA" d="M830.63 787.08a1.467 1.467 0 0 1-.13-.37 1.38 1.38 0 0 1 1.25-1.66c3.22-.37 79.12-8.87 111.53 16.66a1.45 1.45 0 0 1 .29 2.1 1.61 1.61 0 0 1-2.21.13c-31.3-24.65-108.24-16-109-15.93a1.73 1.73 0 0 1-1.73-.93zM916.09 753.62a1.371 1.371 0 0 1 .28-1.65c.37-.34 36.3-33.81 23.11-60.26a1.38 1.38 0 0 1 .74-1.94 1.73 1.73 0 0 1 2.11.83c14.14 28.36-22.12 62.15-23.68 63.57a1.65 1.65 0 0 1-2.23-.1 1.57 1.57 0 0 1-.33-.45zM797.9 797.13a1.371 1.371 0 0 1 .28-1.65c.37-.34 36.3-33.81 23.11-60.26a1.38 1.38 0 0 1 .74-1.94 1.73 1.73 0 0 1 2.11.83c14.14 28.36-22.12 62.15-23.68 63.57a1.65 1.65 0 0 1-2.23-.1 1.57 1.57 0 0 1-.33-.45z"></path><path fill="#F7F7F7" d="M319 374h537v366H319z"></path><path fill="#D3D3D3" d="m333.18 410.8.01 2.6 504.36-.07-.02-2.6zM333.38 457.49l504.52-.09-.02-2.6-504.51.09zM333.58 501.6l504.67-.1-.02-2.6-504.66.1zM333.77 545.74l504.83-.11-.02-2.61-504.82.11zM333.97 589.9l504.98-.12-.03-2.61-504.96.13zM334.16 634.1l505.13-.14-.02-2.61-505.12.14zM334.36 678.32l505.28-.16-.02-2.61-505.27.16z"></path><path fill="#FFBE55" fill-rule="evenodd" d="m334.29 663.22 73.87-64.28c7.82-6.82 20.57-6.82 28.47 0L455 614.79c7.9 6.81 20.65 6.81 28.47 0 7.83-6.81 20.57-6.82 28.47 0l27 23.25c7.91 6.81 20.65 6.81 28.48 0l80.64-70.27c7.81-6.81 20.55-6.81 28.45 0l38.36 33c7.91 6.81 20.65 6.8 28.46 0l13.94-12.15c7.8-6.81 20.54-6.82 28.45 0l53.59 46.12.7 89.06H334.56l-.27-60.58z" clip-rule="evenodd"></path><path fill="#FFBE55" d="M667.82 517.26h-78.21c-9.945.006-18.037-8.005-18.13-17.95-.05-9.858 7.902-17.89 17.76-17.94h78.34c9.943-.006 18.036 7.997 18.14 17.94.061 9.853-7.877 17.889-17.73 17.95h-.17zM820 473.94h-78.18c-9.935-.005-18.016-8.005-18.12-17.94-.061-9.842 7.868-17.869 17.71-17.93H819.74c9.943-.012 18.04 7.987 18.15 17.93.077 9.83-7.829 17.862-17.659 17.94H820zM526.52 561.44h-78.24c-9.952.022-18.053-7.998-18.13-17.95-.066-9.875 7.885-17.933 17.759-18h78.401c9.969-.011 18.074 8.032 18.14 18 .039 9.875-7.935 17.911-17.81 17.95h-.12z"></path><ellipse cx="592.5" cy="1023.5" fill="#F7F7F7" rx="282" ry="19.5"></ellipse><path fill="#0B4870" d="M460 875.35c2.92 6.16 6.9 13.1 12.68 14.83 4 1.19 15.26-6.38 17.51-9.42s-4.73-149.67-9.77-158.6c-6.77-12-60.14 4.56-58.3 25.34 2.35 26.56 9.91 54.81 18.89 81.14A441.175 441.175 0 0 0 460 875.35z"></path><path fill="#0E538C" d="M364.45 1011.46a40 40 0 0 0 17.66-1.41c.3-6.88.607-13.76.92-20.64a5.002 5.002 0 0 0-.33-2.52 4.128 4.128 0 0 0-3.12-1.72c-4.69-.84-11.92-1.1-12.68 4.87-.9 7.13-1.63 14.28-2.45 21.42zM490.56 1011.46a37.815 37.815 0 0 0 17.32-1.41c-1.267-6.88-2.54-13.76-3.82-20.64a5.757 5.757 0 0 0-.9-2.52 5.407 5.407 0 0 0-3.52-1.72c-4.88-.84-12.17-1.1-11.56 4.87.72 7.13 1.66 14.28 2.48 21.42z"></path><path fill="#0B4870" d="M488.61 858.47c-7.62-12.19-26-20.54-33.7.6-11.77 32.23 25.56 92.52 31.09 131.45h20c.57-3.77-13.16-125.29-17.39-132.05z"></path><path fill="#0A3C5F" fill-rule="evenodd" d="M391.88 757.86c4.87 3.84 11.3 4.42 17.34 4.42 49.69 0 78.44-16.16 71.57-39-7.06-23.45-51.53-19.66-74.76-12.11-5 1.63-12.3 3.21-15.72 7.88-4.96 6.8-10.26 29.5 1.57 38.81z" clip-rule="evenodd"></path><path fill="#0B4870" d="M506 667.18c3.79 3.17 8.82 6.14 13.4 4.29a9.752 9.752 0 0 0 5.34-6.43c.703-2.807.859-5.724.46-8.59-2.14-22.6-29.85-75.6-46.91-92.66-6.11-8.8-23.84 33-22.94 39.32.9 6.32 33.05 49.39 50.65 64.07zM374.57 874.68c1.05 6.16 9 13.77 14.26 15.5 3.64 1.19 17.19-6.38 20.37-9.42s38.75-126.06 36.42-135c-3.13-12-13.25-19.73-24.28-21.51-16-2.6-33.35 3-39.76 23.24-15.48 48.9 3.71 85.43-7.01 127.19z"></path><path fill="#CCE9FF" d="M593 700c2.33 2.5 4.84 5.6 4.09 8.93-.64 2.81-3.54 4.65-6.41 5-.87.09-10.08-3.71-20.05-8.35l10-16A129.329 129.329 0 0 1 593 700z"></path><path fill="#0B4870" d="M580.62 689.53 570.8 709c-22.89-10.65-58.06-32.5-63.43-42.09-3.89-6.94-.57-13.2 5.46-17 6.54-4.13 46.5 23.09 67.79 39.62zM415.51 858.47c-3.48-12.16-21.17-21.77-33.91.6-20.5 36-15.71 89.85-16.84 131.45h20c1.82-3.77 32.69-125.29 30.75-132.05z"></path><path fill="#0E538C" d="M486.17 572.18c5.06 7.48 3.23 18.16 2 26.82-2.69 18.52-1.91 149.33-1.66 152.25s-1 6.17-4 7.49a13.786 13.786 0 0 1-5.68.77c-26.09-.17-67.41-.34-93.51-.51a9.603 9.603 0 0 1-5-.94c-3.14-2-2.05-6.2-.93-9.45 7.53-21.74 11.25-79 4.42-100.89C375 626 366.7 599.1 370.46 576.35c9.21-11.24 28-37.34 65.37-37.34 26.17-.01 45.8 26.45 50.34 33.17z"></path><path fill="#0E538C" d="M384.64 562.75c3.56-1.07 28.65.53 22 18.37-8.31 22.15-24.93 40.18-38.79 59.35-4.26 5.89-8.59 11.85-14.2 16.46-5.61 4.61-12.76 7.81-20 7.22-3.8-.32-9.39-2.1-11.25-5.82-1.5-3 .36-7.92 1-10.9 2.41-10.58 41.45-78.78 61.24-84.68z"></path><path fill="#CC346F" fill-rule="evenodd" d="M351.54 628.78c-.04.143-.06.291-.06.44l.06-.44z" clip-rule="evenodd"></path><path fill="#CCE9FF" d="M405 710c.35 3.68-7 7-10.59 7.83-1 .24-6.4-5.11-13.92-10.32l11.51-11.7c5.32 6.69 12.93 13.46 13 14.19zM457.1 668.23c-4.74-25.1-9.58-50.12-15.24-72.84-5.35-21.48-18.24-36.62-34.48-50.73 13.41-10.47 36.81-11.46 48.3 2.22 14.19 16.88 9.68 47.5 9.05 67.74-.51 16.06-5.16 53.63-7.63 53.61z"></path><path fill="#2A94F4" d="M441.14 558.63c-1.88-2.7-4.37-5.56-3.8-8.8a5.3 5.3 0 0 1 4.35-4.21c7.92-1.12 4.29 7.49 3.16 11.29 7.61 11.41 16.76 35.35 19.79 63.92-.82 17.05-5.17 51.42-7.54 51.4-3.23-17.1-6.51-34.15-10.06-50.47-.68-18.86-2.4-58.08-5.9-63.13z"></path><path fill="#0E538C" d="M322 652.93c1-3.4 4.44-5.4 7.76-6.61 5.57-2 12.58-3.41 18.5-2.22 4.08.83 5.34 4.54 7.67 7.53 5.84 7.48 28.66 34.62 40.09 48.91l-12.51 15.72c-18.47-12.81-52-45.24-57.64-52.58-2.37-3.14-4.87-6.94-3.87-10.75z"></path><path fill="#0B4870" fill-rule="evenodd" d="M440 471.89c-2.89-2.89-22.79-10.47-29.2 3.9-2.23 5-3.06 13.53-1.89 18.88 1.55 7.1 13.76 33.45 17.66 30.32a16.722 16.722 0 0 0 6.16-13.1c-.08-5.65-3.05-11.32-1.44-16.74 1-3.27 3.45-5.83 5.85-8.25 1.94-1.95 5.19-4.1 5.69-6.87a9.9 9.9 0 0 0-2.83-8.14z" clip-rule="evenodd"></path><path fill="#0B4870" fill-rule="evenodd" d="M458.4 481c-.34-2.39-1.1-4.85-2.89-6.47-2.86-2.6-7.42-2.19-10.91-.53-1.88.89-3.81 2.43-3.82 4.51 0 1.75 1.33 3.17 2.64 4.33 3 2.67 7.34 6.62 11.32 7.68 4.91 1.35 4.05-6.67 3.66-9.52z" clip-rule="evenodd"></path><path fill="#E5AB83" d="M446.32 512.84c-2.56-11.29-11.1-13.93-16.06-11.22-3.18 21.12-6.43 30.51-14.71 42 10.3 6.6 27.87 5.37 31.67 0 .16-1.62.42-24.95-.9-30.78z"></path><path fill="#EFB68F" d="M425.42 486.2c4.79-11.46 20.49-14.24 29.33-4.39 8.1 9 9.06 32.81 6.05 38.7-5.25 10.29-24.1 5.76-28.12.37-5.89-7.88-11.28-25.03-7.26-34.68z"></path><path fill="#0B4870" fill-rule="evenodd" d="M457 484.08c.34 2.66.19 5.37.79 8s2.19 5.22 4.74 6c-1.3-2.06-1.3-4.7-.82-7.09s1.39-4.68 1.76-7.09c1.396-8.938-4.718-17.315-13.656-18.711a16.399 16.399 0 0 0-6.114.201 10.916 10.916 0 0 0-7.14 4.7c-1.49 2.52-1.33 6.11.86 8.07a7.799 7.799 0 0 0 6.8 1.31c1.92-.44 2.5-1.75 4.08-2.62 4.93-2.73 8.2 3.24 8.7 7.23z" clip-rule="evenodd"></path><path fill="#EFB68F" d="M417.47 507.37a11.162 11.162 0 0 0 4.55 7c6.72 4.62 9.28-5 6.64-9.8-3.14-5.72-12.66-4.81-11.19 2.8z"></path><path fill="#0B4870" fill-rule="evenodd" d="M441.71 477.81c0 2.17-5.83 5.7-7.42 7.18s-3.39 2.83-4.38 4.76c-1.28 2.49-1 5.5-.26 8.21s1.8 5.34 2 8.13-.63 5.9-3 7.4c1-2.58-.08-5.56-1.74-7.8s-3.85-4.05-5.43-6.34a15.37 15.37 0 0 1-1.11-15.24c1.7-3.41 6.34-8.94 9.89-10.28 2.98-1.1 11.56-.93 11.45 3.98zM546 1021.57c.26-2.86-2.46-5.23-5.25-5.89s-5.72-.16-8.59-.2a23.17 23.17 0 0 1-19.9-12.28 5.889 5.889 0 0 0-2-2.66c-1.3-.73-3-.18-4.16.77s-2 2.25-3 3.31a10.267 10.267 0 0 1-7.29 2.92c-2.25 0-4.76-1.75-6.92-.62-1.91 1-2.42 3.64-2.9 5.52-.83 3.24-1.59 6.5-2.38 9.75-.198.727-.332 1.47-.4 2.22h15.6c.73-1 1.32-4 1.63-5.23.05 1.26.55 4.26 1.35 5.23h42.89a4.85 4.85 0 0 0 1.32-2.84zM389.31 1021.57c.12-2.86-1.08-5.23-2.31-5.89s-3.14-5.46-5.68-12.48c-1.16-3.21-7.64-4.11-10.88 1.42-1.05 1.79-2 3-3.2 2.92-1 0-2.1-1.75-3-.62s-1.07 3.64-1.28 5.52c-.36 3.24-.7 6.5-1 9.75-.08.72-.16 1.48-.18 2.22h27a8.53 8.53 0 0 0 .53-2.84z" clip-rule="evenodd"></path><path fill="#CCE9FF" d="m452.36 554.47-5-3.64c-1.17-.86-2.49-1.75-3.93-1.6s-2.5 1.3-3.46 2.37l-4.91 5.53a5.411 5.411 0 0 1-2.78 2c-1.47.29-2.88-.67-4.06-1.59a143.903 143.903 0 0 1-14.92-13.42 1.75 1.75 0 0 1-.18-2.88l6.18-7.52c4.58 2.24 9.28 4.43 14.32 5.15 3.937.647 7.978.038 11.55-1.74.58-.31 1.68-1.39 2.35-1s.8 2.46 1 3.14l1.8 7.13 2.04 8.07z"></path><path fill="#0B4870" d="m455.195 686.155 2.11-.039 1.339 71.606-2.11.04zM450.73 672.17a206.558 206.558 0 0 0-47.22-59.94l-1-.88 12.36-8.89-10.87-3.61-.13-.57c-4-16.56-5.22-31 1.79-47.67l1.95.82c-6.71 15.94-5.61 29.87-1.83 45.78l13.74 4.55-13.56 9.76a208.78 208.78 0 0 1 46.7 59.67l-1.93.98zM464.79 672.7l-1.87-1a170.065 170.065 0 0 0 18.5-63.59l-11-4.26 5.09-.2c2.61-.1 4.66-2.53 5.34-4.88.78-2.7.33-5.65-.28-8.43a75.212 75.212 0 0 0-18.3-35.08l1.55-1.43a77.245 77.245 0 0 1 18.81 36c.67 3.06 1.16 6.33.25 9.48a9.511 9.511 0 0 1-4.12 5.46l4.87 1.89-.07.79a171.878 171.878 0 0 1-18.77 65.25z"></path><path fill="#EFB68F" d="M410.26 720.5c.65 3.33.55 7-1.41 9.8a11.119 11.119 0 0 1-7.63 4.25 27.123 27.123 0 0 1-8.92-.62c-2.08-.41-4.27-1-5.75-2.48s-1.82-4.34-.14-5.64c2-1.54 5.24-.08 7.2-1.65s1.08-4.66 1.18-7.18c.15-3.81 4.11-8.39 8.23-7.73 4.55.75 6.5 7.46 7.24 11.25z"></path><path fill="#FFE3CA" d="M602 721.83c20.59-5.11 9.49-23.61-3.51-23.54-4.3 0-8.86.6-12.21 3.29-11.22 8.98 6.2 22.31 15.72 20.25z"></path><path fill="#0B4870" d="M439.42 696.86a4.84 4.84 0 1 1 0-9.68 4.84 4.84 0 0 1 0 9.68zm0-7.56a2.73 2.73 0 1 0 2.72 2.74v-.02a2.72 2.72 0 0 0-2.72-2.72zM440.78 723.4a4.84 4.84 0 1 1 0-9.68 4.84 4.84 0 0 1 0 9.68zm0-7.56a2.73 2.73 0 1 0 2.72 2.74v-.02a2.73 2.73 0 0 0-2.72-2.72zM456 705.38c-.81 18.45-1 36.74-8.46 53.62 4.14.15 9.24 2.34 12.74-.39 3.87-3 1.2-10.52.69-14.53-1.6-12.25-5.59-26.39-4.97-38.7z"></path><path fill="#0E538C" d="M682.45 1010.91a39.084 39.084 0 0 1-17.59-1.42l2.34-20.83a5.52 5.52 0 0 1 .72-2.54 5.001 5.001 0 0 1 3.43-1.73c4.86-.85 12.19-1.12 12 4.91-.18 7.2-.6 14.41-.9 21.61z"></path><path fill="#0B4870" fill-rule="evenodd" d="M757.66 755.62a24.939 24.939 0 0 0-8.45-15.54c-4-18.7-49.65-32.19-56.79-21-5.18 8.1-20.23 128.57-21.72 154.94-3.12 35.62-6.05 112.77-5.39 115.78h20.17c2.14-30.75 23-74.72 25.09-108a1312.11 1312.11 0 0 0 41.41-97.21c3.53-9.29 7.02-19.1 5.68-28.97z" clip-rule="evenodd"></path><path fill="#0A3C5F" fill-rule="evenodd" d="M799.44 755.09c-4.91 3.87-11.4 4.46-17.49 4.46-50.12 0-79.13-16.3-72.2-39.33 7.12-23.65 52-19.83 75.41-12.21 5.05 1.64 12.41 3.23 15.86 8 4.98 6.79 10.35 29.68-1.58 39.08z" clip-rule="evenodd"></path><path fill="#0B4870" d="M716.27 603.69c-6 22.29-15 44.58-31.43 60.84-3.54 3.5-8.35 6.92-13.1 5.45a9.89 9.89 0 0 1-5.93-6 22.863 22.863 0 0 1-1.19-8.59c.22-22.9 11.39-44.09 22.32-64.21 4.5-8.29 11.25-23.2 21.18-26.2 10.34-3.12 12 13.13 11.67 19.55a94.089 94.089 0 0 1-3.52 19.16z"></path><path fill="#CC346F" fill-rule="evenodd" d="M863 612.47c.087.123.158.258.21.4l-.21-.4z" clip-rule="evenodd"></path><path fill="#FFE3CA" d="M750.89 520.06c7.44-11.38 20.68-14.05 27-11.32-2.39 21.31-.8 30.79 7.38 42.41-17.09 6.66-42.14 5.42-45.87 0 .32-1.71 7.6-25.15 11.49-31.09z"></path><path fill="#FFB750" fill-rule="evenodd" d="M741.57 489.29c-2.18 1.65-4.38 3.68-4.84 6.38-.35 2.07.4 4.14 1.14 6.11l2.85 7.62c2.12-2.72 3.06-6.15 4.18-9.42s2.6-6.61 5.39-8.65c1.73-1.26 4.07-2.2 4.56-4.28.69-3-2.48-4.38-4.74-3.16a66.44 66.44 0 0 0-8.54 5.4z" clip-rule="evenodd"></path><path fill="#FFE3CA" d="M774.89 493.94c-5.71-11.16-21.71-12.73-29.84-2.12-7.44 9.71-6.55 33.7-3.06 39.39 6.09 9.94 24.69 3.92 28.31-1.82 5.3-8.39 9.39-26.06 4.59-35.45z"></path><path fill="#FFB750" fill-rule="evenodd" d="M744.62 517c2.54-1.75 6.41-2 8.49.27 1.11 1.21 1.52 2.88 2.07 4.44.55 1.56 1.37 3.17 2.88 3.83 2.09.91 4.43-.41 6.33-1.67l6.47-4.31c1-.69 2.45-1.38 3.43-.6s.71 2.07.37 3.15a25.6 25.6 0 0 1-19.53 17.15c-3.44.61-7.18.44-10.18-1.36-3.73-2.22-5.57-6.5-6.17-10.65-.54-3.74 2.86-8.25 5.84-10.25z" clip-rule="evenodd"></path><path fill="#FFB750" fill-rule="evenodd" d="M770.18 496.21c-.84 1.64-1.58 25.58-.89 25.45 2.46-.46 6.7-6.33 10.93-5.19 1.35.36 3 1.65 3.68-1.08 4-17.28 4.47-16.25 1.71-18.49-6.08-4.9-13.93-3.61-15.43-.69z" clip-rule="evenodd"></path><path fill="#FFE3CA" d="M784.54 514.61a11.22 11.22 0 0 1-4 7.37c-6.39 5.17-9.72-4.33-7.44-9.34 2.69-5.96 12.32-5.8 11.44 1.97z"></path><path fill="#FFB750" fill-rule="evenodd" d="M748.59 494.16c.07 1.6.58 3.46 2.08 4s19.13-8.34 20.09-8.24-1.58 6.27-.7 7.19 2 .62 3.12.44c4.76-.79 9.5.47 14.15 1.75a8.937 8.937 0 0 0 .32-5.22 13.392 13.392 0 0 0-2.06-3.76c-3.73-5.16-9-9.57-15.21-10.78a31.214 31.214 0 0 0-11.32.17c-14.38 2.59-10.58 12.01-10.47 14.45z" clip-rule="evenodd"></path><path fill="#0B4870" fill-rule="evenodd" d="M626.53 1021.11c-.26-2.88 2.48-5.28 5.29-6s5.77-.16 8.66-.19a23.388 23.388 0 0 0 20.08-12.39 5.879 5.879 0 0 1 2-2.68 3.872 3.872 0 0 1 4.19.77c1.17 1 2 2.27 3.07 3.34a10.257 10.257 0 0 0 7.35 2.94c2.26 0 4.8-1.76 7-.62 1.92 1 2.44 3.67 2.93 5.57.83 3.27 1.6 6.56 2.4 9.84.194.731.328 1.477.4 2.23h-15.74c-.73-1-1.33-4-1.65-5.27 0 1.27-.55 4.29-1.36 5.27h-43.27a4.818 4.818 0 0 1-1.35-2.81z" clip-rule="evenodd"></path><path fill="#0E538C" d="M792.78 1014.66a39.512 39.512 0 0 1-17.7-.83l.5-20.86a5.226 5.226 0 0 1 .49-2.55 4.74 4.74 0 0 1 3.27-1.85c4.79-1 12.09-1.52 12.45 4.5.44 7.18.66 14.39.99 21.59z"></path><path fill="#0B4870" fill-rule="evenodd" d="M811.25 738.71c-.17-21.09-18.44-28.15-35.06-27.26a34.421 34.421 0 0 0-10.26 2.17c-5.85-2-12.53-.37-17.57 3.21s-8.72 9.13-11.22 14.91c-6.92 16-6 34.28-3.7 51.58a342.606 342.606 0 0 0 8.41 42.11c2.93 11 6 25 10 36.33-2.1 8.23 20.37 128.67 22 132.4l20.16-.68c1.7-41.41 10-95-7.14-130.77a377.386 377.386 0 0 0 13.38-42.86c6.37-26.04 11.22-54.18 11-81.14zM767.62 1025.7c-.21-2.87.91-5.3 2.13-6s3-5.61 5.31-12.77c1.06-3.27 7.57-4.4 11 1.06 1.12 1.78 2.14 2.92 3.33 2.84 1-.07 2.05-1.84 3.05-.73s1.19 3.64 1.47 5.53c.48 3.25.92 6.53 1.38 9.79.1.73.21 1.48.25 2.23l-27.24.91a8.559 8.559 0 0 1-.68-2.86z" clip-rule="evenodd"></path><path fill="#F7B690" d="M785.1 712.87c-2.07 2.47 4.92 4.13 7.39 6.2l-19.81 1.06a5.004 5.004 0 0 0-3.27 1 3.31 3.31 0 0 0-.43 3.81 8.099 8.099 0 0 0 2.85 2.88 30.998 30.998 0 0 0 21.85 5 16.834 16.834 0 0 0 8.19-3.23 8.92 8.92 0 0 0 3.46-7.79c-.61-4.54-4-4.62-7.46-5.5-2.18-.64-12.07-4.3-12.77-3.43z"></path><path fill="#0E538C" d="M830.36 583.18c-7.32-8.56-20.17-25.31-43.22-34.48-13.72 7-31.48 5.46-43.54-5.08-23.28 5-40.77 23.84-45.4 29.29-6.13 7.21-4.52 18-3.48 26.69 2.23 18.64-8 149.28-8.46 152.18s4.23 6.22 7.53 7.69c2.07.747 4.26 1.106 6.46 1.06 29.86 1.21 77.13 3.22 107 4.43 2 .08 4.1.13 5.76-.68 3.68-1.79 2.63-6.09 1.5-9.39-7.62-22.11 19.1-148.79 15.85-171.71z"></path><path fill="#FFF" d="M781.11 545.4c-10.31 8.13-25.65 4.11-37-1a32.007 32.007 0 0 0-10.41 6.15c-17.8 16.08-13.8 46.91-14 67.16-.13 16.08 3.72 53.87 6.69 54 6.84-24.81 13.79-49.53 21.63-71.91 7.42-21.17 23.57-35.58 43.71-48.78a46.446 46.446 0 0 0-10.62-5.62z"></path><path fill="#FFB750" d="M749.43 563.57c2.26-2.6 5.24-5.32 4.74-8.59a5.75 5.75 0 0 0-4.78-4.43c-9-1.54-5.25 7.26-4.13 11.11-9.23 11-20.8 34.43-25.58 62.81.15 17.08 3.55 51.64 6.26 51.74 4.48-16.91 9-33.77 13.83-49.89 1.64-18.8 5.42-57.88 9.66-62.75z"></path><path fill="#FFF" d="m735 558.79 6.76-3.34a9.406 9.406 0 0 1 5.28-1.35 8.265 8.265 0 0 1 4.48 2.58l6.26 5.82a7.619 7.619 0 0 0 3.59 2.18c2 .38 3.85-.49 5.47-1.35a180.46 180.46 0 0 0 20.4-12.49c.58-.41 1.2-.9 1.2-1.51a2.154 2.154 0 0 0-.83-1.35l-7.85-7.89c-6.17 2-22.78 6.5-29.5 6.91-5.18.31-7.13-6.58-8-6.26-.87.32-1.18 2.41-1.44 3.07l-2.71 7c-1.033 2.667-2.07 5.327-3.11 7.98z"></path><path fill="#0B4870" d="M734.13 676.49a213.585 213.585 0 0 1 56.77-57.39l1.19-.83-13.74-9.52s46-18.29 13-51.31c20.39 29.07 3.41 40.79-18.2 50.36l15.07 10.46c-36.42 24.74-54.09 58.23-54.09 58.23zM716 676.44s-14.9-43.28-16-65.39l12.74-3.67-5.81-.47a7.1 7.1 0 0 1-5.88-5.16c-.77-2.73-.12-5.66.71-8.41 3.87-12.94 20.83-35.59 20.83-35.59a74.593 74.593 0 0 0-23.17 35c-.91 3-1.62 6.26-.72 9.45a9.733 9.733 0 0 0 4.45 5.68l-5.65 1.63v.79a156.27 156.27 0 0 0 18.5 66.14z"></path><path fill="#FFF" d="M603.46 699.17c-2.11 2.68-4.35 6-3.32 9.24.87 2.75 3.92 4.34 6.8 4.39.88 0 9.74-4.55 19.28-10l-11.3-15.08a129.129 129.129 0 0 0-11.46 11.45z"></path><path fill="#0B4870" d="m614.92 687.71 11.43 18.53c21.9-12.55 58.39-37.29 62.93-47.31 3.28-7.23-7.49-16.85-13.82-20.11-6.86-3.54-40.72 30.65-60.54 48.89z"></path><path fill="#EFB68F" d="M596.4 721.7a15.22 15.22 0 0 1-12.81-13.57c0-5.06 1.35-9.17 14.32-10.19 4.28-.34 8.87-.15 12.44 2.25 11.89 8-4.35 22.75-13.95 21.51z"></path><path fill="#FFE3CA" d="M807.64 766.23c-1.23 10.14 2.68 18.85 8.69 19.69 5 .6 6-7.54 13.15-17 6.12-8.18-2.66-19-8.69-19.69s-11.92 6.85-13.15 17z"></path><path fill="#FFF" d="M813.29 753.93c1.83 3.21 9.74 1.74 13.17.34 1-.4 2.31-7.86 5.48-16.44l-16.12-3c-.55 8.52-2.9 18.44-2.53 19.1z"></path><path fill="#0E538C" d="M848.51 659.58c-2.73-2.24-6.73-1.89-10.14-1-5.74 1.53-10.93 9-15.09 13.39-2.87 3-6.94 50.77-8.11 69l19.27 5.71c7.78-21.08 16.68-66.9 17.07-76.13.17-3.9.06-8.46-3-10.97z"></path><path fill="#0E538C" d="M846.35 612.68c5.75 22.36 8.94 46.18 2.7 68.42-1.34 4.8-3.84 10.14-8.7 11.21a9.849 9.849 0 0 1-8.11-2.29 23.095 23.095 0 0 1-5.29-6.89c-11.11-20-11.86-44-12.29-66.85-.18-9.44-1.67-25.74 5.48-33.24 7.45-7.82 17 5.47 19.8 11.23a94.297 94.297 0 0 1 6.41 18.41z"></path></svg>