<svg xmlns="http://www.w3.org/2000/svg" viewBox="0 0 436.605 368.91" id="team-discussing-on-website-development"><g data-name="Layer 2"><g data-name="Layer 1"><path fill="#d5efc8" d="M287.10151,366.18753c14.29621-4.46921,27.12322-9.03521,42.55434-17.70091,15.915-8.93844,86.61308-51.47518,95.80665-125.09411a140.42434,140.42434,0,0,0-5.85925-59.96493c-2.84165-8.3314-8.73609-25.06457-23.613-41.613-18.21118-20.26984-38.99129-28.12616-51.17606-32.569a147.66334,147.66334,0,0,0-57.37842-8.52494c-11.04988.3607-30.55432,1.17009-52.72445,10.85633-14.46338,6.31673-23.4546,13.522-36.70389,24.29037-20.99125,17.07628-23.75372,24.1848-60.4752,59.44587-10.08213,9.67744-18.36954,17.305-31.0206,24.81824-8.77127,5.20822-15.8622,8.12025-28.94434,13.434-32.15549,13.06455-41.31085,15.7098-51.83287,23.06465C5.27108,250.944,6.59652,266.55389,5.71675,269.9146a66.09428,66.09428,0,0,0-1.55719,26.36663c2.68329,17.65693,12.19358,29.19947,18.09682,36.18483a99.50009,99.50009,0,0,0,28.94434,23.261,184.9686,184.9686,0,0,0,23.71852,10.46043Z"></path><path fill="none" stroke="#bbec6c" stroke-miterlimit="10" stroke-width=".88" d="M233.38042,85.71884c23.09073-10.08236,43.40388-10.933,54.921-11.30727a153.8878,153.8878,0,0,1,59.767,8.88428c12.69142,4.62892,34.33432,12.81232,53.30571,33.92181,15.49083,17.23668,21.63071,34.66871,24.58882,43.34452a146.319,146.319,0,0,1,6.10232,62.4592c-9.571,76.68718-83.21447,120.9903-99.79113,130.30277"></path><rect width="36.66" height="16.194" x="111.928" y="195.34" fill="#b6d1a6" transform="rotate(-180 130.258 203.437)"></rect><rect width="36.66" height="16.194" x="90.653" y="174.094" fill="#b6d1a6" transform="rotate(-180 108.983 182.191)"></rect><rect width="36.66" height="16.194" x="68.537" y="195.34" fill="#b6d1a6" transform="rotate(-180 86.867 203.437)"></rect><rect width="36.66" height="16.194" x="98.235" y="216.585" fill="#b6d1a6" transform="rotate(-180 116.565 224.682)"></rect><rect width="36.66" height="16.194" x="56.475" y="216.585" fill="#b6d1a6" transform="rotate(-180 74.805 224.682)"></rect><rect width="36.66" height="16.194" x="385.999" y="272.186" fill="#b6d1a6" transform="rotate(-180 404.329 280.283)"></rect><rect width="36.66" height="16.194" x="364.724" y="250.941" fill="#b6d1a6" transform="rotate(-180 383.054 259.038)"></rect><rect width="36.66" height="16.194" x="342.608" y="272.186" fill="#b6d1a6" transform="rotate(-180 360.938 280.283)"></rect><rect width="36.66" height="16.194" x="372.305" y="293.431" fill="#b6d1a6" transform="rotate(-180 390.635 301.528)"></rect><rect width="36.66" height="16.194" x="330.545" y="293.431" fill="#b6d1a6" transform="rotate(-180 348.875 301.528)"></rect><rect width="36.66" height="16.194" x="308.322" y="118.112" fill="#b6d1a6" transform="rotate(-180 326.652 126.209)"></rect><rect width="36.66" height="16.194" x="287.046" y="96.866" fill="#b6d1a6" transform="rotate(-180 305.376 104.963)"></rect><rect width="36.66" height="16.194" x="264.931" y="118.112" fill="#b6d1a6" transform="rotate(-180 283.261 126.209)"></rect><rect width="36.66" height="16.194" x="294.628" y="139.357" fill="#b6d1a6" transform="rotate(-180 312.958 147.454)"></rect><rect width="36.66" height="16.194" x="252.868" y="139.357" fill="#b6d1a6" transform="rotate(-180 271.198 147.454)"></rect><rect width="138.757" height="105.307" x="68.048" y="53.381" fill="#e5e1e5" rx="6.309"></rect><rect width="138.757" height=".574" x="68.049" y="65.896" fill="#a2aee6"></rect><path fill="#ffba55" d="M75.8948,62.9824c3.32156,0,3.32706-5.16209,0-5.16209-3.32156,0-3.32706,5.16209,0,5.16209Z"></path><path fill="#f73c4f" d="M84.49829,62.9824c3.32156,0,3.32706-5.16209,0-5.16209-3.32156,0-3.32706,5.16209,0,5.16209Z"></path><path fill="#4f66d0" d="M92.52821,62.9824c3.32156,0,3.32706-5.16209,0-5.16209-3.32156,0-3.32706,5.16209,0,5.16209Z"></path><rect width="121.825" height="28.495" x="75.895" y="74.855" fill="#a2aee6"></rect><rect width="53.273" height=".574" x="75.895" y="113.135" fill="#a2aee6"></rect><rect width="53.273" height=".574" x="75.895" y="121.808" fill="#a2aee6"></rect><rect width="53.273" height=".574" x="75.895" y="130.48" fill="#a2aee6"></rect><rect width="53.273" height=".574" x="75.895" y="139.381" fill="#a2aee6"></rect><rect width="53.273" height=".574" x="75.895" y="148.053" fill="#a2aee6"></rect><rect width="52.537" height="35.512" x="145.184" y="110.783" fill="#a2aee6"></rect><rect width="170.129" height="129.116" x="258.63" fill="#e5e1e5" rx="7.736"></rect><rect width="170.129" height=".703" x="258.63" y="15.345" fill="#a2aee6"></rect><path fill="#ffba55" d="M268.25,11.7723c4.07254,0,4.07928-6.32919,0-6.32919-4.07253,0-4.07928,6.32919,0,6.32919Z"></path><path fill="#f73c4f" d="M278.79861,11.7723c4.07254,0,4.07928-6.32919,0-6.32919-4.07253,0-4.07928,6.32919,0,6.32919Z"></path><path fill="#4f66d0" d="M288.644,11.7723c4.07253,0,4.07928-6.32919,0-6.32919-4.07254,0-4.07928,6.32919,0,6.32919Z"></path><rect width="65.317" height=".703" x="268.25" y="73.265" fill="#a2aee6"></rect><rect width="65.317" height=".703" x="268.25" y="83.898" fill="#a2aee6"></rect><rect width="65.317" height=".703" x="268.25" y="94.531" fill="#a2aee6"></rect><rect width="65.317" height=".703" x="268.25" y="105.445" fill="#a2aee6"></rect><rect width="65.317" height=".703" x="268.25" y="116.078" fill="#a2aee6"></rect><rect width="64.415" height="43.541" x="353.204" y="70.381" fill="#a2aee6"></rect><rect width="31.823" height="31.823" x="267.102" y="28.323" fill="#a2aee6"></rect><rect width="31.823" height="31.823" x="307.472" y="28.323" fill="#a2aee6"></rect><rect width="31.823" height="31.823" x="348.805" y="28.323" fill="#a2aee6"></rect><rect width="31.823" height="31.823" x="388.536" y="28.323" fill="#a2aee6"></rect><path fill="#f9977a" d="M186.18227,135.93122s3.58209-2.42381,5.88-11.68211,3.11943-16.78925.05253-10.80473l-2.26156,4.59911s-1.424-7.53623-1.87918-12.10012a5.67952,5.67952,0,0,0-4.46022-5.07719c-2.23916-.43276-3.7665.57291-4.261,5.918-.73965,7.99436-.90261,12.23852-.50756,14.26585.13686.70236,2.23107,8.17961,2.23107,8.17961Z"></path><path fill="#dd765e" d="M190.34848 122.66173a7.14378 7.14378 0 01-.30883-1.14014 11.52971 11.52971 0 01-.17312-1.146c-.0328-.38379-.06631-.76709-.06309-1.155a8.68927 8.68927 0 01.04976-1.177 5.07749 5.07749 0 01.39619 1.11987 8.08062 8.08062 0 01.19835 1.15356 8.55465 8.55465 0 01.03794 1.16773A5.88767 5.88767 0 01190.34848 122.66173zM186.25356 113.57579a24.24827 24.24827 0 01-.49254-2.82641c-.1244-.94849-.18819-1.90308-.22319-2.85938a24.28183 24.28183 0 01.06668-2.873 13.17351 13.17351 0 01.50557-2.8313c-.09994 1.91089-.04959 3.79.01161 5.686l.08562 2.844C186.23284 111.66588 186.2618 112.61656 186.25356 113.57579zM183.446 113.23253a23.32725 23.32725 0 01-.67911-3.06909 26.46294 26.46294 0 01-.31892-3.13208 17.72022 17.72022 0 01.123-3.158 7.41751 7.41751 0 01.94287-3.00732 10.74616 10.74616 0 00-.49518 3.04858c-.03794 1.02832-.04155 2.06006.013 3.09326C183.1079 109.076 183.30335 111.14122 183.446 113.23253zM180.91182 112.28673a16.99238 16.99238 0 01-.60971-2.5581 22.50676 22.50676 0 01-.28566-2.61573 19.4904 19.4904 0 01.05031-2.63574 12.841 12.841 0 01.4892-2.58887c-.02117.87964-.05046 1.74219-.04 2.60718.02446.8645.03461 1.72632.08393 2.58936l.14674 2.592z"></path><path fill="#f9977a" d="M170.611,340.73849l-3.61589,18.81235s11.71064,4.49167,18.66744-7.00228l1.659-10.44Z"></path><path fill="#935b50" d="M168.94136,349.59246s-8.535,10.6611-3.80437,16.94479a2.62937,2.62937,0,0,0,2.11616,1.03337l42.31409-.22972a1.3795,1.3795,0,0,0,1.35844-1.54176c-.24285-2.19206-1.26615-6.15636-5.40542-7.9768-5.88538-2.58835-10.06075,2.07568-19.87478-6.36485C185.64548,351.45749,172.92432,355.11326,168.94136,349.59246Z"></path><path fill="#f9977a" d="M222.23513,340.08047l2.579,20.91357s10.95394,1.95761,15.88839-10.53875l-2.66609-10.78894Z"></path><path fill="#935b50" d="M223.27979,349.59246s-8.535,10.6611-3.80438,16.94479a2.62938,2.62938,0,0,0,2.11617,1.03337l42.31408-.22972a1.3795,1.3795,0,0,0,1.35844-1.54176c-.24285-2.19206-1.26614-6.15636-5.40542-7.9768-5.88538-2.58835-9.34207,1.07348-19.15611-7.36705C240.70257,350.45529,227.26275,355.11326,223.27979,349.59246Z"></path><path fill="#f73c4f" d="M185.815,128.7003l-5.86723-1.33347-7.791,27.92759c-2.57907,9.245,9.38632,15.357,15.37585,7.85724,2.38224-2.98292,4.0572-5.486,4.41625-6.98208l1.33346,15.73484-3.467,24.269h50.40481V146.302l11.95986,15.71867c5.64182,6.68347,16.04281,6.68347,21.11-5.051l8.00077-17.60168-11.20107-6.934L262.089,145.23521l-16.19286-24.48208a20.93933,20.93933,0,0,0-17.46478-9.38782H204.01758a13.1778,13.1778,0,0,0-11.14575,6.14739Z"></path><path fill="#b02336" d="M173.84468 149.24425c.86553-1.78906 1.80121-3.53711 2.74755-5.27881.939-1.74609 1.9283-3.46289 2.91778-5.17969 1.00472-1.70776 2.01073-3.41479 3.06626-5.093 1.04911-1.68189 2.10823-3.35791 3.23877-4.99243-.86451 1.78955-1.80046 3.53735-2.7464 5.27929-.93953 1.74585-1.92858 3.46289-2.91893 5.179-1.00557 1.70727-2.01134 3.41455-3.06737 5.09253C176.0336 145.93322 174.97423 147.609 173.84468 149.24425zM191.949 156.16954c-.15278-2.28906-.22436-4.57812-.28363-6.86718-.061-2.28931-.05539-4.57837-.08635-6.86744.029-2.28906.026-4.57812.08506-6.86718.05969-2.28931.131-4.57837.28492-6.86743.154 2.28906.22522 4.57812.28491 6.86743.059 2.28906.05607 4.57812.08506 6.86718-.031 2.28907-.02535 4.57813-.08635 6.86744C192.17331 151.59142 192.10173 153.88048 191.949 156.16954zM240.22023 146.30187c-1.59568-2.36719-3.1244-4.77466-4.64125-7.18946-1.522-2.41137-2.98144-4.86059-4.47523-7.28906l-.01813-.02929-.00989-.02808a20.47 20.47 0 01-.98-4.36255 17.543 17.543 0 01.01479-4.45923 13.24365 13.24365 0 011.375-4.23437 11.36016 11.36016 0 012.86746-3.34424 12.12 12.12 0 00-2.53987 3.51123 12.8168 12.8168 0 00-1.13165 4.13843 19.67123 19.67123 0 00.086 4.30444 20.76261 20.76261 0 00.99552 4.18188l-.02785-.05688c1.43981 2.46069 2.91394 4.90112 4.32555 7.37891C237.47745 141.29821 238.88231 143.77989 240.22023 146.30187zM195.14926 188.70592c1.52829.53394 3.074 1.00244 4.64267 1.38135.77923.20605 1.56894.37182 2.35178.55957l2.37235.45532a57.47652 57.47652 0 009.59375.88062c1.60687.06884 3.20964-.04566 4.81483-.11622.79941-.0708 1.59551-.17993 2.39389-.26782l1.19644-.14355 1.18582-.21265c.78943-.14819 1.58643-.26929 2.37226-.4397l2.33456-.6167c.38913-.10375.787-.18286 1.17-.30737l1.1431-.39453 2.29884-.77832a40.07725 40.07725 0 01-9.21223 3.09644l-1.19275.26562c-.40134.06665-.80649.10938-1.20966.16528-.80774.10059-1.614.22217-2.42381.30518-1.62526.09424-3.251.23413-4.8808.18408a52.37 52.37 0 01-9.691-1.06323A44.68828 44.68828 0 01195.14926 188.70592zM268.75629 149.24425a16.19925 16.19925 0 00-2.77257-3.68726 3.38743 3.38743 0 00-1.87339-.9309 2.35073 2.35073 0 00-1.75364.85351l-.02094-.51a9.5576 9.5576 0 011.73357 2.499 13.61872 13.61872 0 011.01992 2.814 17.16182 17.16182 0 01.37931 2.94678 16.96172 16.96172 0 01-.17926 2.94018l-.05861-1.46264c-.05174-.48438-.07456-.96826-.14946-1.446a16.66306 16.66306 0 00-.58631-2.81982 15.61193 15.61193 0 00-1.06481-2.64527 10.27921 10.27921 0 00-1.58774-2.29492l-.25627-.2688.23534-.24145a2.92193 2.92193 0 012.34249-1.0271 3.66741 3.66741 0 012.1821 1.21753A12.16227 12.16227 0 01268.75629 149.24425z"></path><path fill="#376f92" d="M191.68227,196.1734l-23.079,146.85176a2,2,0,0,0,1.786,2.29418l15.5637,1.49241a2,2,0,0,0,2.15207-1.59864l25.446-124.77073,7.40353,123.465a2,2,0,0,0,1.99641,1.88029H239.829a2,2,0,0,0,1.9996-2.03986L238.88677,196.1734Z"></path><path fill="#10394f" d="M186.34842 271.91393a25.03847 25.03847 0 003.469.60937 18.63593 18.63593 0 003.49188.06348 12.85168 12.85168 0 003.38872-.73584 10.76123 10.76123 0 002.985-1.80371 8.60314 8.60314 0 01-2.86186 2.10156 11.97317 11.97317 0 01-3.47781.855A16.25408 16.25408 0 01186.34842 271.91393zM184.48159 278.58116c1.35344-.04077 2.7001-.15283 4.03959-.29052a33.91112 33.91112 0 003.98206-.62622 18.98627 18.98627 0 003.83685-1.16309 10.06007 10.06007 0 003.34294-2.18726 8.6892 8.6892 0 01-3.20962 2.48072 17.321 17.321 0 01-3.88265 1.27881 29.27219 29.27219 0 01-8.10917.50756zM221.28508 272.84459a25.84336 25.84336 0 003.00385.31323 20.38441 20.38441 0 002.99693-.06738 14.99713 14.99713 0 005.73369-1.64453 10.09951 10.09951 0 01-2.69711 1.42041 13.24815 13.24815 0 01-2.99787.64111A15.30087 15.30087 0 01221.28508 272.84459zM221.28508 278.59288a21.52657 21.52657 0 003.50524.67725 26.14073 26.14073 0 003.55227.18115 27.89261 27.89261 0 003.5505-.24927c1.18286-.13476 2.349-.37841 3.52668-.60913a21.34767 21.34767 0 01-3.47806.928 23.19936 23.19936 0 01-3.59465.34912 21.98921 21.98921 0 01-3.60226-.28222A14.21013 14.21013 0 01221.28508 278.59288zM207.95049 216.1754c1.37434 1.07642 2.80754 2.07007 4.258 3.02881a48.54979 48.54979 0 004.48524 2.6499 33.00547 33.00547 0 004.76168 2.07813 20.54326 20.54326 0 005.089 1.04394 16.982 16.982 0 01-5.18667-.73657 29.73056 29.73056 0 01-4.85805-2.01465 41.45361 41.45361 0 01-4.47185-2.75537A38.50169 38.50169 0 01207.95049 216.1754zM198.08287 224.97618c1.99559-.32153 3.986-.60229 5.94184-1.0437a24.72273 24.72273 0 002.89453-.77246 7.28567 7.28567 0 002.63139-1.38428 5.96327 5.96327 0 01-2.518 1.686 19.71459 19.71459 0 01-2.919.87988A29.07806 29.07806 0 01198.08287 224.97618zM217.24746 223.37609a6.04029 6.04029 0 001.59439 3.26 12.56127 12.56127 0 002.80429 2.36328c.50689.34765 1.05386.63843 1.58625.949.55661.26856 1.10538.554 1.66843.812 1.12756.51783 2.29033.95191 3.45162 1.41651-.60524-.15064-1.20418-.32788-1.80877-.4917-.59761-.18384-1.178-.41992-1.7696-.62818-.58977-.21435-1.14391-.51513-1.71761-.77-.54884-.30541-1.11264-.58959-1.639-.937a11.85061 11.85061 0 01-2.82388-2.51049A5.48032 5.48032 0 01217.24746 223.37609z"></path><path fill="#f9977a" d="M271.50059,133.30736l5.87874-15.00806,9.26926-12.359a1.43259,1.43259,0,0,1,2.0129-.281h0a1.43259,1.43259,0,0,1,.32332,1.938l-5.20487,7.76845s7.23237-5.10072,7.74769,3.79021a2.48683,2.48683,0,0,1-2.0069,2.58551,7.41251,7.41251,0,0,0-2.45158.91386s.889,8.44525-4.62267,8.712l-2.30943,7.28652Z"></path><path fill="#f9977a" d="M276.0393 121.72032s.84518-6.1289.27167-7.69534a1.7438 1.7438 0 01.08449-1.30179c.602-1.34865 1.8586-3.02889 2.91472 3.00164l-1.93085 2.57447zM207.47219 111.799l-.66673-35.3367h26.26917V97.46548a8.33534 8.33534 0 01-8.33534 8.33535h-.59884l.13334 5.99813z"></path><polygon fill="#dd765e" points="224.14 105.801 219.94 105.801 224.274 111.799 224.14 105.801"></polygon><path fill="#1e1d22" d="M207.359,105.80083s13.18109,2.1311,17.44816-13.2037c0,0-5.86723-3.2003,0-6.80065,0,0,3.2003-.66673,3.33365,1.33346l4.9338-10.66768s5.06716,1.20011,4.80046-4.80046c0,0,5.2005-3.067-1.20011-5.73388,0,0,.26669-7.46738-6.80065-2.00019,0,0-4.80046-11.06772-17.0683,4.66711,0,0-20.0019,1.7335-10.53433,18.40176Z"></path><path fill="#f9977a" d="M80.56862,339.80749l-1.67378,8.87617s8.25846,14.2837,15.2327,2.76094l.075-12.516Z"></path><path fill="#935b50" d="M78.89484,348.68366s-2.78027,18.02772-1.95117,18.02322l42.67887-.2303a1.383,1.383,0,0,0,1.36184-1.54563c-.24345-2.19755-16.94947-5.89238-26.7881-14.35406C94.19628,350.57689,82.88778,354.2183,78.89484,348.68366Z"></path><path fill="#f9977a" d="M40.44724 339.80749L35.777 359.10635s11.255 3.861 18.2292-7.66175L56.96463 340.297zM74.1208 70.58669a17.9 17.9 0 018.39.1606c1.28808.36256 5.99914 1.68849 8.53211 5.897.962 1.59831 1.28689 3.57637 1.93706 7.53245.40607 2.471 1.48231 4.18861 1.68247 7.22206a25.68294 25.68294 0 01-.71609 7.31786c-.87166 3.74107-.015 5.77665-.52565 6.49906-2.058 2.91151-9.00741 1.1963-8.87 4.80791.08483 2.23007 5.17029 9.67565 5.19929 12.29.03758 3.38921-9.64107 3.44346-12.96915 1.96941-.45368-.201-8.75338-7.40619-8.58078-11.37188.09227-2.11854.68953-15.55964.43348-16.82149-.92587-4.5608-3.28217-4.9679-5.48014-10.40932a8.672 8.672 0 01.87564-8.43763A17.71374 17.71374 0 0174.1208 70.58669z"></path><ellipse cx="92.282" cy="88.144" fill="#0a0709" rx=".936" ry="1.165" transform="rotate(-3.801 92.282 88.139)"></ellipse><ellipse cx="83.857" cy="88.704" fill="#0a0709" rx=".936" ry="1.165" transform="rotate(-3.803 83.857 88.703)"></ellipse><path fill="#1e1d22" d="M87.65993 86.359a.59105.59105 0 01-.35449-1.06446 6.28505 6.28505 0 016.99512-.43945.59089.59089 0 01-.64649.98926h0a5.004 5.004 0 00-5.64062.39746A.59063.59063 0 0187.65993 86.359zM78.92849 86.94005a.591.591 0 01-.3545-1.06445 6.27964 6.27964 0 016.99463-.44043.59088.59088 0 01-.64648.98926h0a5.00186 5.00186 0 00-5.64014.39843A.5895.5895 0 0178.92849 86.94005z"></path><path fill="#dd765e" d="M86.913 86.652a6.02685 6.02685 0 00.908 2.67041 14.76981 14.76981 0 001.64255 2.29321l.50531.53052a1.436 1.436 0 01.43024.957 2.09749 2.09749 0 01-.8342 1.59692 3.21524 3.21524 0 01-3.04736.38794 3.86789 3.86789 0 002.51373-.95728 1.41878 1.41878 0 00.42239-.97509c-.02618-.146-.03726-.16992-.19476-.33814l-.52765-.52173a7.48084 7.48084 0 01-.92636-1.26269c-.24692-.45825-.46933-.876-.67288-1.35059A4.24822 4.24822 0 0186.913 86.652zM71.62792 88.06282a5.74608 5.74608 0 00-.79016.62036 8.71429 8.71429 0 00-.64813.67358c-.42139.46582-.79269.98242-1.31778 1.50977a2.73009 2.73009 0 01.18881-1.071 3.179 3.179 0 01.56848-.93628 2.7199 2.7199 0 01.89542-.66772A1.65749 1.65749 0 0171.62792 88.06282z"></path><path fill="#dd765e" d="M71.19085,92.95881a18.3625,18.3625,0,0,0-.34057-2.116,19.18235,19.18235,0,0,0-.64444-2.04078,2.47766,2.47766,0,0,1,.88351.78174,3.03282,3.03282,0,0,1,.49094,1.08911A2.81167,2.81167,0,0,1,71.19085,92.95881Z"></path><path fill="#1e1d22" d="M77.19478,96.90969s-1.99206-6.57957-1.83586-8.51157c.21791-2.69216.32691-4.03817-.06448-5.10184-.62642-1.70255.2048-1.98491,1.16914-3.92346.90507-1.81941,4.16413-.612,4.93451-.95638,2.16218-.9668,2.01816-1.89472,3.5106-2.08751,1.53065-.19772,2.6316-.67874,3.69041.24692,1.07988.94488,3.11694,3.51191,3.54413,3.01469a8.77778,8.77778,0,0,0,1.42065-4.52942,9.72985,9.72985,0,0,0-1.39-4.46482c-.41762-.78539-1.9727-3.70826-4.84706-4.32512-1.65552-.35536-1.91524.44784-5.416.88944-3.63094.45814-3.79828-.34941-5.67125.32006-2.07328.74117-1.92546,1.75053-5.40565,3.96323A37.47331,37.47331,0,0,1,67.26,73.38863c-4.40613,2.22118-5.01945,1.95361-5.99518,3.03049-2.10353,2.3217-1.48823,6.03233-1.33962,6.92861.41871,2.52429,1.46154,3.2219,3.88981,7.14873,3.84506,6.21871,3.33949,8.97281,4.65176,9.79337.64375.40254,3.73158-2.11677,3.64111-3.251-.11841-1.4869-1.22185-1.88523-2.62758-3.95228-.98184-1.44466-2.39211-3.51873-1.793-5.52365.36262-1.212.87642-.92118,2.10936-.889,1.67333.04367,2.64546,2.30595,3.4253,3.96187a9.1207,9.1207,0,0,1,.86531,3.82922C74.1067,97.41882,77.84554,98.043,77.19478,96.90969Z"></path><path fill="#dd765e" d="M84.8507,99.32335a10.167,10.167,0,0,0,3.60278.77954,4.3545,4.3545,0,0,0,1.68973-.34546A11.11809,11.11809,0,0,0,91.8218,98.86a3.67161,3.67161,0,0,1-1.30628,1.58325,3.91,3.91,0,0,1-.96283.489,4.79365,4.79365,0,0,1-1.0759.16992,4.45543,4.45543,0,0,1-2.05642-.47852A4.19668,4.19668,0,0,1,84.8507,99.32335Z"></path><path fill="#1e1d22" d="M88.04205,95.11036c1.98421-.20094,2.29062-1.21943,6.02167,3.08112,0,0-3.93694-.94837-11.4648,1.4086C82.59892,99.60008,85.20108,95.39806,88.04205,95.11036Z"></path><path fill="#f73c4f" d="M111.62529,148.25056l-5.762-21.40093a17.29176,17.29176,0,0,0-7.75889-10.43242,11.0324,11.0324,0,0,0-2.68347-1.197L85.33033,112.5234s10.09132,25.16276-17.13029.38778c0,0-8.35858-.33273-16.379,6.85079A11.1911,11.1911,0,0,0,48.574,124.8282L41.99007,146.433l16.28472,2.7711s-7.69692,51.42439-7.76085,51.70713l54.56313-1.23516-4.32126-50.68459Z"></path><path fill="#b02336" d="M62.87773 130.17076a17.356 17.356 0 00-.21694-2.35962 13.2557 13.2557 0 00-.514-2.27954 8.14884 8.14884 0 00-2.3624-3.82055 7.04252 7.04252 0 00-4.17309-1.53955 17.94154 17.94154 0 00-4.67627.418 12.65684 12.65684 0 014.69491-.989 6.97451 6.97451 0 014.63367 1.544 7.84783 7.84783 0 012.43121 4.23535A12.458 12.458 0 0162.87773 130.17076zM91.64428 114.2108a1.60259 1.60259 0 011.07128.3899c.148.12573.30359.24658.44544.38037l.38406.43945a11.19327 11.19327 0 011.2594 1.95532 30.09863 30.09863 0 011.74637 4.29688c.46841 1.47021.89069 2.95923 1.22113 4.46362l.51651 2.25415.4386 2.26831c.292 1.51318.49673 3.03858.7214 4.56079.23267 1.52149.4332 3.04639.57816 4.57813.35983 3.05468.55441 6.12549.72919 9.19384-.24173-1.51977-.43555-3.043-.6547-4.563-.18-1.52442-.413-3.04151-.64117-4.5586-.42926-3.03686-.883-6.07055-1.46249-9.07739a88.38153 88.38153 0 00-1.99021-8.95288 30.39608 30.39608 0 00-1.52749-4.304 10.9391 10.9391 0 00-1.08912-1.99487l-.34219-.45434c-.12689-.13892-.26846-.26343-.40207-.39844A1.55249 1.55249 0 0091.64428 114.2108zM58.2748 149.204a51.60149 51.60149 0 011.38095-6.42823 50.99748 50.99748 0 012.09671-6.23168 51 51 0 01-1.381 6.42822A51.5848 51.5848 0 0158.2748 149.204z"></path><path fill="#8b9d36" d="M102.958,199.724,98.326,341.786a3.60567,3.60567,0,0,1-3.52216,3.48725l-15.06561.341a3.60569,3.60569,0,0,1-3.68706-3.64563l1.44027-127.06821L57.48006,342.9003a3.67857,3.67857,0,0,1-3.77112,3.10781l-12.9401-.48124A3.67855,3.67855,0,0,1,37.2499,341.441L53.0137,200.85461Z"></path><path fill="#5e7c24" d="M94.43093 199.9171c.24868 1.824.54388 3.62988.86444 5.42456.33346 1.79224.70617 3.57324 1.20474 5.3125a23.13512 23.13512 0 001.9693 5.00684 7.15632 7.15632 0 003.85272 3.56445 5.22849 5.22849 0 01-2.555-1.09888 8.86022 8.86022 0 01-1.88248-2.10571 18.62922 18.62922 0 01-2.23044-5.12671 36.079 36.079 0 01-1.22329-10.977zM60.62715 200.68224a23.77535 23.77535 0 01-.20431 5.40112 22.0974 22.0974 0 01-1.4166 5.2605 13.15689 13.15689 0 01-3.04754 4.56421 9.12776 9.12776 0 01-2.27155 1.5647 8.94875 8.94875 0 01-2.61844.72778A9.93865 9.93865 0 0055.473 215.423a14.868 14.868 0 002.72244-4.41919 29.61023 29.61023 0 001.55487-5.04443A51.80827 51.80827 0 0060.62715 200.68224z"></path><polygon fill="#5e7c24" points="89.254 200.034 89.574 218.201 89.804 236.369 90.119 272.704 90.232 309.041 90.215 327.21 90.106 345.38 89.785 327.213 89.555 309.045 89.241 272.71 89.13 236.373 89.146 218.204 89.254 200.034"></polygon><polygon fill="#5e7c24" points="66.109 200.558 63.839 218.814 61.479 237.057 56.616 273.525 51.552 309.964 48.948 328.175 46.253 346.372 48.522 328.117 50.882 309.873 55.746 273.406 60.811 236.966 63.415 218.756 66.109 200.558"></polygon><path fill="#b02336" d="M71.2737,156.95763a6.35425,6.35425,0,0,1-6.34326-6.20313l-.2583-11.41992,12.689-.28711.25879,11.41992a6.35371,6.35371,0,0,1-6.20068,6.48829C71.37038,156.95665,71.322,156.95763,71.2737,156.95763Zm-5.95312-17.00391.24462,10.78711a5.73283,5.73283,0,0,0,5.83887,5.58008,5.71129,5.71129,0,0,0,5.58106-5.83984L76.741,139.69591Z"></path><polygon fill="#49151d" points="100.914 155.97 103.46 142.265 71.103 142.998 66.226 179.925 97.314 179.221 100.914 155.97"></polygon><path fill="#f9977a" d="M109.03954,148.42682l1.94585,12.01677a19.903,19.903,0,0,1-5.23217,17.09206l-.42626.446a3.61265,3.61265,0,0,1-2.5299,1.11565l-5.483.12412s-15.44235-9.17213-.24416-10.78574l4.36938-3.27281-.68474-16.36308Z"></path><polygon fill="#49151d" points="100.914 155.97 103.46 142.265 71.103 142.998 66.226 179.925 87.229 168.341 100.914 155.97"></polygon><path fill="#f9977a" d="M43.37094,146.66794l-2.38843,21.08062c-1.28464,6.34918,1.95735,12.88232,8.28,11.47286l33.17532-5.59223,9.45169,1.1322,4.78819-2.62221,1.05672-8.82158s-1.51294-3.377-7.965-2.87157l-8.64434,2.79944-26.49472,2.36868,3.64445-16.41008Z"></path><path fill="#dd765e" d="M85.83276,108.04011l-.0008-.01147s-4.56945,1.57007-8.52941,0c0,0,3.94976,7.188,9.03985,7.53393l-.08838-1.30444a14.29676,14.29676,0,0,1-1.70331-4.23438A1.99056,1.99056,0,0,1,85.83276,108.04011Z"></path><path fill="#935b50" d="M54.68725,348.68366s2.52154,18.02772,1.69244,18.02321l-42.42014-.23029a1.383,1.383,0,0,1-1.36184-1.54563c.24345-2.19755,15.50492-5.9159,25.34356-14.37759C37.94127,350.55336,50.6943,354.2183,54.68725,348.68366Z"></path><path fill="#dd765e" d="M91.88951,174.76134A3.78214,3.78214,0,0,1,90.5176,172.339l-.03623-.38062.0477-.38721a2.61441,2.61441,0,0,1,.22449-.75317,3.39316,3.39316,0,0,1,.97226-1.18017,2.81778,2.81778,0,0,1,.61957-.397,4.13773,4.13773,0,0,1,.64663-.31811,7.63242,7.63242,0,0,1,1.34888-.37451,9.57707,9.57707,0,0,1,2.729-.11255c-.85745.33642-1.7095.5542-2.51974.86425a8.07275,8.07275,0,0,0-2.20383,1.12134,2.41778,2.41778,0,0,0-1.05215,1.8833A5.56233,5.56233,0,0,0,91.88951,174.76134Z"></path><path fill="#f9977a" d="M354.09681,66.615a18.122,18.122,0,0,0-8.494.1626c-1.30405.367-6.07352,1.70943-8.6379,5.97016-.974,1.61813-1.30284,3.62071-1.96107,7.62584-.41111,2.50167-1.5007,4.24055-1.70333,7.3116a26.00142,26.00142,0,0,0,.725,7.40859c.88247,3.78745.01517,5.84827.53217,6.57964,2.08356,2.94761,8.41668,1.50237,8.2776,5.15875-.08589,2.25772-4.532,9.50438-4.56134,12.15111-.03806,3.43123,7.91981,4.82727,15.08233,1.69845,4.13088-1.8045,8.5502-8.25817,8.37546-12.273-.09341-2.1448-2.33877-14.697-2.07954-15.97451.93735-4.61735,3.32286-5.0295,5.54809-10.53838a8.77957,8.77957,0,0,0-.8865-8.54224A17.93342,17.93342,0,0,0,354.09681,66.615Z"></path><ellipse cx="335.71" cy="84.39" fill="#0a0709" rx="1.179" ry=".948" transform="rotate(-86.197 335.71 84.39)"></ellipse><ellipse cx="344.24" cy="84.956" fill="#0a0709" rx="1.179" ry=".948" transform="rotate(-86.197 344.24 84.956)"></ellipse><path fill="#1e1d22" d="M340.38942 82.58361a.598.598 0 01-.35791-.11914 5.06318 5.06318 0 00-5.71-.40235.59834.59834 0 01-.65429-1.00195 6.34775 6.34775 0 017.08105.44531.59883.59883 0 01-.35889 1.07813zM349.22976 83.1715a.598.598 0 01-.35792-.11914A5.06189 5.06189 0 00343.1614 82.65a.59834.59834 0 01-.6543-1.00195 6.34576 6.34576 0 017.08154.44531.59883.59883 0 01-.35888 1.07813z"></path><path fill="#dd765e" d="M341.146 82.8795a4.69492 4.69492 0 01-.43512 2.95655 10.86076 10.86076 0 01-1.63039 2.54858c-.3365.38623-.80832.66065-.804 1.06275a1.7067 1.7067 0 00.55975 1.17993 3.68223 3.68223 0 002.7101.79272 3.43129 3.43129 0 01-2.92-.56885 1.90126 1.90126 0 01-.71241-1.42407 1.161 1.161 0 01.35914-.77637l.5154-.53735a11.91119 11.91119 0 001.65161-2.4187A5.35 5.35 0 00341.146 82.8795zM356.62058 84.30773a2.48883 2.48883 0 011.88883.926 4.38333 4.38333 0 01.58654.89966 3.83972 3.83972 0 01.31489 1.01294 14.2305 14.2305 0 00-1.19939-1.64795 4.37026 4.37026 0 00-.71441-.68262A3.60438 3.60438 0 00356.62058 84.30773z"></path><path fill="#dd765e" d="M357.06309,89.26451a3.54967,3.54967,0,0,1,.99721-4.20825c-.1742.344-.36366.658-.49552.999a4.89658,4.89658,0,0,0-.3324,1.02612A7.2689,7.2689,0,0,0,357.06309,89.26451Z"></path><path fill="#1e1d22" d="M354.13076,90.78935a9.234,9.234,0,0,1,.876-3.8767c.78951-1.67646,1.77369-3.96678,3.46777-4.011,1.24823-.03257,1.76839-.327,2.13551.9.60652,2.02978-.82123,4.12956-1.81524,5.59213-1.42317,2.09268-2.54029,2.49595-2.66017,4.00128-.09159,1.14834,3.03453,3.69889,3.68626,3.29136,1.32853-.83074.81669-3.619,4.70943-9.9148,2.45838-3.97552,3.51414-4.68177,3.938-7.23735.15045-.9074.77338-4.664-1.35623-7.01452-.98783-1.09023-1.60875-.81935-6.06951-3.06806a37.9413,37.9413,0,0,1-3.61823-1.96884c-3.52333-2.24013-3.37368-3.262-5.47266-4.01237-1.8962-.67776-2.06561.1398-5.74157-.324-3.54412-.44708-3.80706-1.26024-5.4831-.90047-2.91.62451-4.48436,3.58362-4.90716,4.37875a9.8505,9.8505,0,0,0-1.40728,4.52017,8.8866,8.8866,0,0,0,1.43827,4.58557c.43248.50339,2.49481-2.09546,3.58807-3.05206,1.07194-.93713,2.18654-.45015,3.73617-.25,1.51094.19518,1.36514,1.13461,3.55412,2.11339.77993.3487,4.0794-.87373,4.99569.96824.9763,1.96258,1.81782,2.24844,1.18364,3.97211-.39624,1.07685-.2859,2.43955-.06528,5.16509.15813,1.956-1.85863,8.6171-1.85863,8.6171C350.32589,94.41176,354.11109,93.77985,354.13076,90.78935Z"></path><path fill="#dd765e" d="M343.23387,95.70812a4.32985,4.32985,0,0,1-1.59709,1.29492,4.5398,4.5398,0,0,1-2.07328.47656,4.83912,4.83912,0,0,1-1.08278-.16968,3.976,3.976,0,0,1-.971-.488,3.779,3.779,0,0,1-1.33336-1.583,10.68168,10.68168,0,0,0,1.68852.92871,4.36255,4.36255,0,0,0,1.72088.35889A9.88964,9.88964,0,0,0,343.23387,95.70812Z"></path><path fill="#1e1d22" d="M333.81173,96.005a8.0098,8.0098,0,0,1,.90553-2.76587,3.53218,3.53218,0,0,1,.46854-.66772,3.45568,3.45568,0,0,1,.71482-.66748,2.455,2.455,0,0,1,1.32149-.40357,2.713,2.713,0,0,1,.76778.10157,4.38062,4.38062,0,0,1,.60489.2351c.307.15332.56206.30933.67644.342a.37334.37334,0,0,1,.07636.02979c.01849.00562-.00349-.022-.00727-.0271a.47.47,0,0,0-.21052-.09228.73742.73742,0,0,0-.38258-.00733.27952.27952,0,0,0-.19547.03931,6.74474,6.74474,0,0,1,.89776-.49365,4.36131,4.36131,0,0,1,2.3251-.26563,5.28472,5.28472,0,0,1,1.98992.86646,8.33875,8.33875,0,0,1,2.15085,2.47094l.32992.59278c.09852.18164.20922.377.21849.41723a1.99241,1.99241,0,0,0,.27716.41919.89162.89162,0,0,0,.21076.16187c.10245.04394.27109.084.39542.12573a1.84715,1.84715,0,0,0,.77194.07446c.535-.01953,1.13525-.604,1.65079-1.41162l.2238.02832a3.26769,3.26769,0,0,1-1.19256,2.39087,2.79169,2.79169,0,0,1-1.312.45288,3.06512,3.06512,0,0,1-1.37888-.14648,2.83848,2.83848,0,0,1-1.14787-.79639c-.30032-.36377-.52648-.72485-.78566-1.07935A8.09321,8.09321,0,0,0,342.446,94.058a3.13112,3.13112,0,0,0-1.09769-.5144,2.35159,2.35159,0,0,0-1.18421.09594,5.5991,5.5991,0,0,0-.5616.2566l-.35585.14965a1.47165,1.47165,0,0,1-.40417.01294,3.53421,3.53421,0,0,1-1.195-.69506,1.02487,1.02487,0,0,0-1.07194-.06714,3.66793,3.66793,0,0,0-.96981.78173,15.61238,15.61238,0,0,0-1.60426,2.04859Z"></path><path fill="#dd765e" d="M349.23,104.37654a15.7096,15.7096,0,0,1-8.38746,0l-.00006.00049c1.194.437,2.04462,1.09057,1.99268,2.45532a9.27487,9.27487,0,0,1-.82617,2.66894C345.73632,109.02693,349.23,104.37654,349.23,104.37654Z"></path><path fill="#f9977a" d="M376.89446,340.58026l1.58593,9.08344s9.8929,13.5585,16.9536,1.89288l-2.33148-10.97632Z"></path><path fill="#935b50" d="M378.48039,349.6637s-8.66248,10.82032-3.86119,17.19787a2.66863,2.66863,0,0,0,2.14777,1.0488l42.94607-.23315a1.4001,1.4001,0,0,0,1.37873-1.56479c-.24647-2.2248-15.69716-5.98925-25.65778-14.55585C395.434,351.55658,382.52284,355.267,378.48039,349.6637Z"></path><path fill="#f9977a" d="M352.1757,340.67748l3.6699,19.09333s-12.12239,5.219-19.18309-6.44666l.88714-12.21323Z"></path><path fill="#935b50" d="M353.87023,349.6637s8.66248,10.82032,3.86119,17.19787a2.66861,2.66861,0,0,1-2.14776,1.0488l-42.94608-.23315a1.40011,1.40011,0,0,1-1.37873-1.56479c.24648-2.2248,15.69716-5.98925,25.65778-14.55585C336.91663,351.55658,349.82778,355.267,353.87023,349.6637Z"></path><path fill="#ffba55" d="M325.752,197.31742,333.804,342.96466a2,2,0,0,0,1.997,1.8896h18.58769a2,2,0,0,0,1.99885-2.06792l-4.43959-130.65081L375.49,343.20782a2,2,0,0,0,1.9685,1.64644h16.65533a2,2,0,0,0,1.982-2.26779L376.4686,197.31742Z"></path><path fill="#e6952a" d="M334.41094 197.31749a36.6929 36.6929 0 01-.12254 5.60352 35.09474 35.09474 0 01-.93517 5.54785 18.95887 18.95887 0 01-2.12886 5.24243 9.55854 9.55854 0 01-1.83439 2.18482 5.336 5.336 0 01-2.54456 1.19946 7.19929 7.19929 0 003.87961-3.67627 23.3488 23.3488 0 001.90082-5.13892c.46763-1.781.79619-3.60107 1.09118-5.42993C334.00281 201.01915 334.218 199.17418 334.41094 197.31749zM368.73741 197.31749a47.91407 47.91407 0 00.95316 5.3479 29.8497 29.8497 0 001.68761 5.10083 15.07109 15.07109 0 002.88809 4.43653 9.92827 9.92827 0 004.5749 2.675 9.21172 9.21172 0 01-2.65834-.709 9.92081 9.92081 0 01-2.31638-1.54809 13.35082 13.35082 0 01-3.17449-4.54834 22.52819 22.52819 0 01-1.565-5.2898A25.24458 25.24458 0 01368.73741 197.31749z"></path><polygon fill="#e6952a" points="339.668 197.317 340.16 215.756 340.574 234.197 341.281 271.079 341.813 307.965 342.017 326.409 342.142 344.854 341.649 326.415 341.234 307.975 340.53 271.092 339.999 234.206 339.795 215.763 339.668 197.317"></polygon><polygon fill="#e6952a" points="363.171 197.317 366.289 215.731 369.331 234.156 375.293 271.027 381.084 307.925 383.918 326.383 386.674 344.854 383.554 326.441 380.512 308.015 374.552 271.145 368.762 234.247 365.928 215.788 363.171 197.317"></polygon><path fill="#376f92" d="M325.06086,198.606l1.9328-23.83783s-14.81811,4.50986-12.241-16.10665l1.44053-24.00873a17.01213,17.01213,0,0,1,7.22579-12.918l14.26209-6.44965,4.775-7.6282h19.328l4.65993,8.07513,14.2757,5.14655c4.7411,3.12219,7.85794,8.182,8.64322,14.93544l.80817,6.95025a191.20477,191.20477,0,0,1,1.272,23.7949l-.02281,2.55c0,3.07647-3.22133,7.59172-14.81811,8.88026l.64426,19.328S357.27415,203.76007,325.06086,198.606Z"></path><path fill="#f9977a" d="M374.66932,159.71847l-.10678-3.07878-2.284-1.9033a4.6031,4.6031,0,0,0-3.38591-1.04592l-8.51753.81615,1.5322,9.41Z"></path><path fill="#10394f" d="M328.92646,154.79576c-.34593-3.86547-.42542-7.731-.43962-11.59668.01237-3.86547.09159-7.7312.43962-11.59668.348,3.86548.42725,7.73121.43962,11.59668C329.35187,147.06481,329.27238,150.93029,328.92646,154.79576Z"></path><path fill="#f9977a" d="M339.52058,154.41712l-2.65464-4.00493a10.36007,10.36007,0,0,0-4.70277-3.86081l-3.83774-1.57459c-1.54121-.63234-3.169-.18784-4.81464.07135-2.27131.35774-4.76712,1.44666-2.65663,3.94406a7.16918,7.16918,0,0,0,2.01853,1.61217l7.55752,4.19151Z"></path><path fill="#10394f" d="M383.689 126.44811a33.91235 33.91235 0 00-5.77067 2.90185 11.29933 11.29933 0 00-2.38106 2.0398 8.05543 8.05543 0 00-1.51226 2.78955 5.58232 5.58232 0 01.96347-3.20215 8.71782 8.71782 0 012.44153-2.3584 12.89528 12.89528 0 013.01274-1.47265A12.56346 12.56346 0 01383.689 126.44811zM376.60212 177.98937a80.32007 80.32007 0 01-11.1689 1.14819 99.60075 99.60075 0 01-11.24559-.25513 78.03985 78.03985 0 01-11.10358-1.85888 50.07909 50.07909 0 01-10.49571-3.99439c1.76658.63013 3.45795 1.41529 5.26815 1.885 1.7593.6106 3.58053 1.00879 5.38448 1.45117a89.0576 89.0576 0 0011.02428 1.64185c3.70421.34717 7.42826.45825 11.15408.457q2.795.0033 5.59087-.13086C372.87649 178.28063 374.73779 178.142 376.60212 177.98937zM381.75624 163.17125c-.55835-.44287-1.09452-.86548-1.63422-1.26782a14.24347 14.24347 0 00-1.66162-1.07886 8.17334 8.17334 0 00-1.78839-.71875 7.73457 7.73457 0 00-2.00269-.15576 3.70094 3.70094 0 012.09749-.52417 5.29354 5.29354 0 012.11445.62671 6.85977 6.85977 0 011.698 1.34229A5.96149 5.96149 0 01381.75624 163.17125zM383.689 156.08434c-1.75983.62646-3.46472 1.21777-5.13669 1.91919-.841.33471-1.66551.70678-2.48879 1.09106l-2.48923 1.1958a13.12026 13.12026 0 014.64378-3.10009 15.64751 15.64751 0 012.68078-.83228A10.89767 10.89767 0 01383.689 156.08434zM328.28219 129.02526a23.22284 23.22284 0 00-2.961-3.48658 10.06558 10.06558 0 00-1.78777-1.3 10.68118 10.68118 0 00-2.127-.84668 4.78435 4.78435 0 012.40632.21972 6.49282 6.49282 0 012.1 1.27637 8.2818 8.2818 0 011.51252 1.90015A6.89343 6.89343 0 01328.28219 129.02526zM324.4166 163.81554a10.0759 10.0759 0 01-.44256-2.88257 9.449 9.449 0 01.40143-2.93774 4.92858 4.92858 0 011.67287-2.54273 3.82106 3.82106 0 012.87812-.65674 4.98772 4.98772 0 00-2.433 1.17945 5.304 5.304 0 00-1.28055 2.2876A23.87638 23.87638 0 00324.4166 163.81554z"></path><path fill="#10394f" d="M320.551 158.0172a4.40024 4.40024 0 011.44993-2.28369 6.30214 6.30214 0 012.44405-1.29126 8.32686 8.32686 0 012.7207-.2627c.45046.03955.897.1128 1.33706.18872.43492.11963.86662.23658 1.285.39161-.45182.03759-.89033.03662-1.32561.03833l-1.29372.06762a13.516 13.516 0 00-2.48667.4231A7.44492 7.44492 0 00320.551 158.0172zM374.02505 139.97765l.291 4.989.26475 4.98975.45948 9.98144.01289.28028-.27382.08642-11.902 3.75879c-3.96453 1.262-7.95334 2.4458-11.92882 3.67261-3.9741 1.2312-7.965 2.40845-11.95612 3.58472-3.9872 1.189-7.99007 2.32763-11.99878 3.44751 3.93721-1.34986 7.88028-2.68091 11.839-3.96167 3.95477-1.29322 7.90984-2.5857 11.88166-3.82422 3.97045-1.24292 7.92757-2.52881 11.909-3.73657l11.93576-3.65015-.26074.36621-.18479-9.99048-.05738-4.99634z"></path><path fill="#10394f" d="M361.90733 163.91661c-.26156-1.76391-.5075-3.52758-.85058-5.27075-.15742-.87256-.32605-1.74414-.54554-2.59595a6.79352 6.79352 0 00-.90264-2.2998l.25683.1001c-2.57468.16455-5.152.26465-7.72793.3999-2.57548.145-5.15443.20679-7.73206.30054-2.57729.10156-5.1563.16211-7.73629.199-2.57915.05713-5.16033.06568-7.74266.04614 2.57177-.23388 5.1447-.44043 7.71966-.5979 2.57412-.178 5.14922-.33227 7.726-.44506 2.57648-.12134 5.15163-.27442 7.73026-.344 2.57822-.07934 5.155-.19409 7.7344-.24438l.174-.00342.08316.10376a3.72678 3.72678 0 01.638 1.335 13.09162 13.09162 0 01.32779 1.32373c.1842.88306.31353 1.769.431 2.65527C361.68769 160.35631 361.84841 162.13317 361.90733 163.91661zM359.62325 110.42614a6.98958 6.98958 0 01.43962 2.57153 6.90987 6.90987 0 01-.43962 2.57129 6.91008 6.91008 0 01-.43962-2.57129A6.98958 6.98958 0 01359.62325 110.42614zM362.63076 110.42614a6.98979 6.98979 0 01.43962 2.57153 6.91008 6.91008 0 01-.43962 2.57129 6.90967 6.90967 0 01-.43962-2.57129A6.98938 6.98938 0 01362.63076 110.42614zM341.57823 110.42614a6.98958 6.98958 0 01.43962 2.57153 6.91008 6.91008 0 01-.43962 2.57129 6.90987 6.90987 0 01-.43962-2.57129A6.98958 6.98958 0 01341.57823 110.42614zM344.58573 110.42614a6.98958 6.98958 0 01.43962 2.57153 6.90987 6.90987 0 01-.43962 2.57129 6.91008 6.91008 0 01-.43962-2.57129A6.98958 6.98958 0 01344.58573 110.42614zM347.59323 110.42614a6.9896 6.9896 0 01.43963 2.57153 6.90989 6.90989 0 01-.43963 2.57129 6.91008 6.91008 0 01-.43962-2.57129A6.99 6.99 0 01347.59323 110.42614zM350.60074 110.42614a6.98958 6.98958 0 01.43962 2.57153 6.90987 6.90987 0 01-.43962 2.57129 6.91008 6.91008 0 01-.43962-2.57129A6.98958 6.98958 0 01350.60074 110.42614zM353.60824 110.42614a6.98958 6.98958 0 01.43962 2.57153 6.90987 6.90987 0 01-.43962 2.57129 6.91008 6.91008 0 01-.43962-2.57129A6.98979 6.98979 0 01353.60824 110.42614zM356.61575 110.42614a6.98979 6.98979 0 01.43962 2.57153 6.91008 6.91008 0 01-.43962 2.57129 6.90987 6.90987 0 01-.43962-2.57129A6.98958 6.98958 0 01356.61575 110.42614z"></path><path fill="none" stroke="#935b50" stroke-linecap="round" stroke-linejoin="round" stroke-width="2" d="M434.72525,367.91041H1.87977a.87977.87977,0,1,1,0-1.75953H434.72525a.87977.87977,0,1,1,0,1.75953Z"></path></g></g></svg>