<svg xmlns="http://www.w3.org/2000/svg" xmlns:xlink="http://www.w3.org/1999/xlink" data-name="Layer 1" viewBox="0 0 1400 1000" id="robot-working-on-startup"><defs><linearGradient id="b" x1="758.64" x2="1111.17" y1="146.5" y2="146.5" gradientUnits="userSpaceOnUse"><stop offset="0" stop-color="#fff"></stop><stop offset=".61" stop-color="#9ab5db" stop-opacity=".46"></stop><stop offset="1" stop-color="#5884c3" stop-opacity=".1"></stop></linearGradient><linearGradient id="c" x1="758.64" x2="1111.17" y1="146.5" y2="146.5" gradientUnits="userSpaceOnUse"><stop offset="0" stop-color="#4058a6"></stop><stop offset="1" stop-color="#5884c3" stop-opacity=".1"></stop></linearGradient><linearGradient id="a" x1="863.36" x2="803.84" y1="-477.57" y2="-419.93" gradientTransform="matrix(.99 -.1 .1 .99 5.88 1010.64)" gradientUnits="userSpaceOnUse"><stop offset="0" stop-color="#f2541d"></stop><stop offset=".23" stop-color="#f17923" stop-opacity=".88"></stop><stop offset=".56" stop-color="#efa72b" stop-opacity=".73"></stop><stop offset=".83" stop-color="#eec42f" stop-opacity=".63"></stop><stop offset="1" stop-color="#eece31" stop-opacity=".6"></stop></linearGradient><linearGradient id="f" x1="875.25" x2="832.69" y1="-489.27" y2="-449.95" xlink:href="#a"></linearGradient><linearGradient id="g" x1="876.84" x2="849.94" y1="-491" y2="-467.55" xlink:href="#a"></linearGradient><linearGradient id="h" x1="172.98" x2="525.51" y1="245.94" y2="245.94" xlink:href="#b"></linearGradient><linearGradient id="i" x1="172.98" x2="525.51" y1="245.94" y2="245.94" xlink:href="#c"></linearGradient><linearGradient id="j" x1="1043.14" x2="1238.88" y1="412" y2="412" gradientUnits="userSpaceOnUse"><stop offset="0" stop-color="#f25654"></stop><stop offset=".09" stop-color="#f25a58" stop-opacity=".97"></stop><stop offset=".22" stop-color="#f36765" stop-opacity=".9"></stop><stop offset=".37" stop-color="#f57b79" stop-opacity=".78"></stop><stop offset=".54" stop-color="#f79796" stop-opacity=".62"></stop><stop offset=".72" stop-color="#fabbba" stop-opacity=".4"></stop><stop offset=".9" stop-color="#fde6e6" stop-opacity=".15"></stop><stop offset="1" stop-color="#fff" stop-opacity="0"></stop></linearGradient><linearGradient id="d" x1="1095.19" x2="1181.02" y1="409.09" y2="409.09" gradientUnits="userSpaceOnUse"><stop offset="0" stop-color="#4058a6"></stop><stop offset="1" stop-color="#5884c3" stop-opacity=".8"></stop></linearGradient><linearGradient id="k" x1="1136.1" x2="1183.02" y1="387.79" y2="387.79" xlink:href="#d"></linearGradient><linearGradient id="l" x1="1047.83" x2="1059.05" y1="427.24" y2="427.24" xlink:href="#d"></linearGradient><linearGradient id="m" x1="1047.83" x2="1059.05" y1="444.08" y2="444.08" xlink:href="#d"></linearGradient><linearGradient id="n" x1="1047.83" x2="1059.05" y1="460.92" y2="460.92" xlink:href="#d"></linearGradient><linearGradient id="o" x1="1064.67" x2="1090.09" y1="427.24" y2="427.24" xlink:href="#d"></linearGradient><linearGradient id="p" x1="1055.42" x2="1080.84" y1="359.24" y2="359.24" xlink:href="#d"></linearGradient><linearGradient id="q" x1="1055.42" x2="1075.34" y1="366.17" y2="366.17" xlink:href="#d"></linearGradient><linearGradient id="r" x1="1196.1" x2="1221.52" y1="360.26" y2="360.26" xlink:href="#d"></linearGradient><linearGradient id="s" x1="1196.1" x2="1216.02" y1="367.2" y2="367.2" xlink:href="#d"></linearGradient><linearGradient id="t" x1="1196.1" x2="1216.02" y1="353.33" y2="353.33" xlink:href="#d"></linearGradient><linearGradient id="u" x1="1207.73" x2="1233.15" y1="446.94" y2="446.94" xlink:href="#d"></linearGradient><linearGradient id="v" x1="1207.73" x2="1227.65" y1="453.47" y2="453.47" xlink:href="#d"></linearGradient><linearGradient id="w" x1="1207.73" x2="1233.15" y1="460" y2="460" xlink:href="#d"></linearGradient><linearGradient id="x" x1="1207.73" x2="1227.65" y1="466.53" y2="466.53" xlink:href="#d"></linearGradient><linearGradient id="y" x1="1064.67" x2="1090.09" y1="444.08" y2="444.08" xlink:href="#d"></linearGradient><linearGradient id="z" x1="1064.67" x2="1090.09" y1="460.92" y2="460.92" xlink:href="#d"></linearGradient><linearGradient id="e" x1="1036.27" x2="1242.38" y1="412.11" y2="412.11" gradientUnits="userSpaceOnUse"><stop offset="0" stop-color="#4058a6"></stop><stop offset=".25" stop-color="#415aa8" stop-opacity=".97"></stop><stop offset=".49" stop-color="#4562ad" stop-opacity=".89"></stop><stop offset=".72" stop-color="#4c6fb5" stop-opacity=".74"></stop><stop offset=".96" stop-color="#5680c0" stop-opacity=".54"></stop><stop offset="1" stop-color="#5884c3" stop-opacity=".5"></stop></linearGradient><linearGradient id="A" x1="547.6" x2="737.96" y1="200.71" y2="200.71" gradientUnits="userSpaceOnUse"><stop offset="0" stop-color="#f2ba34"></stop><stop offset=".13" stop-color="#f2bb37" stop-opacity=".98"></stop><stop offset=".26" stop-color="#f3be41" stop-opacity=".94"></stop><stop offset=".39" stop-color="#f4c452" stop-opacity=".85"></stop><stop offset=".52" stop-color="#f5cc69" stop-opacity=".74"></stop><stop offset=".64" stop-color="#f7d686" stop-opacity=".59"></stop><stop offset=".77" stop-color="#fae2ab" stop-opacity=".41"></stop><stop offset=".89" stop-color="#fcf1d5" stop-opacity=".21"></stop><stop offset="1" stop-color="#fff" stop-opacity="0"></stop></linearGradient><linearGradient id="B" x1="567.71" x2="586.48" y1="230.22" y2="230.22" xlink:href="#d"></linearGradient><linearGradient id="C" x1="601.44" x2="620.21" y1="224.95" y2="224.95" xlink:href="#d"></linearGradient><linearGradient id="D" x1="634.28" x2="653.06" y1="237.07" y2="237.07" xlink:href="#d"></linearGradient><linearGradient id="E" x1="699.08" x2="717.86" y1="237.07" y2="237.07" xlink:href="#d"></linearGradient><linearGradient id="F" x1="666.62" x2="685.39" y1="230.45" y2="230.45" xlink:href="#d"></linearGradient><linearGradient id="G" x1="558.99" x2="611.19" y1="145.08" y2="145.08" xlink:href="#d"></linearGradient><linearGradient id="H" x1="558.99" x2="611.19" y1="157.57" y2="157.57" xlink:href="#d"></linearGradient><linearGradient id="I" x1="558.99" x2="592.47" y1="151.14" y2="151.14" xlink:href="#d"></linearGradient><linearGradient id="J" x1="558.99" x2="592.47" y1="163.89" y2="163.89" xlink:href="#d"></linearGradient><linearGradient id="K" x1="596.06" x2="605.51" y1="151.14" y2="151.14" xlink:href="#d"></linearGradient><linearGradient id="L" x1="596.06" x2="602.49" y1="163.89" y2="163.89" xlink:href="#d"></linearGradient><linearGradient id="M" x1="615.73" x2="626.88" y1="145.08" y2="145.08" xlink:href="#d"></linearGradient><linearGradient id="N" x1="614.4" x2="626.88" y1="157.57" y2="157.57" xlink:href="#d"></linearGradient><linearGradient id="O" x1="685.39" x2="722.82" y1="144.42" y2="144.42" xlink:href="#d"></linearGradient><linearGradient id="P" x1="685.39" x2="707.85" y1="149.97" y2="149.97" xlink:href="#d"></linearGradient><linearGradient id="Q" x1="685.39" x2="722.82" y1="155.65" y2="155.65" xlink:href="#d"></linearGradient><linearGradient id="R" x1="685.39" x2="707.85" y1="161.54" y2="161.54" xlink:href="#d"></linearGradient><linearGradient id="S" x1="540.6" x2="744.97" y1="200.72" y2="200.72" xlink:href="#e"></linearGradient><linearGradient id="T" x1="164.62" x2="374.74" y1="403.84" y2="403.84" gradientUnits="userSpaceOnUse"><stop offset="0" stop-color="#5884c3"></stop><stop offset=".15" stop-color="#5b86c4" stop-opacity=".98"></stop><stop offset=".29" stop-color="#658ec8" stop-opacity=".92"></stop><stop offset=".43" stop-color="#769ace" stop-opacity=".82"></stop><stop offset=".57" stop-color="#8eacd6" stop-opacity=".68"></stop><stop offset=".72" stop-color="#acc2e1" stop-opacity=".5"></stop><stop offset=".86" stop-color="#d1ddef" stop-opacity=".27"></stop><stop offset=".99" stop-color="#fcfdfe" stop-opacity=".02"></stop><stop offset="1" stop-color="#fff" stop-opacity="0"></stop></linearGradient><linearGradient id="U" x1="178.79" x2="302.54" y1="445.77" y2="445.77" xlink:href="#e"></linearGradient><linearGradient id="V" x1="187.74" x2="351.57" y1="393.14" y2="393.14" xlink:href="#e"></linearGradient><linearGradient id="W" x1="188.25" x2="354.79" y1="393.15" y2="393.15" xlink:href="#e"></linearGradient><linearGradient id="X" x1="316.75" x2="354.17" y1="437.2" y2="437.2" xlink:href="#d"></linearGradient><linearGradient id="Y" x1="316.75" x2="339.2" y1="442.76" y2="442.76" xlink:href="#d"></linearGradient><linearGradient id="Z" x1="316.75" x2="354.17" y1="448.44" y2="448.44" xlink:href="#d"></linearGradient><linearGradient id="aa" x1="316.75" x2="339.2" y1="454.33" y2="454.33" xlink:href="#d"></linearGradient><linearGradient id="ab" x1="157.62" x2="381.73" y1="403.84" y2="403.84" xlink:href="#e"></linearGradient><linearGradient id="ac" x1="9419.13" x2="9419.13" y1="-4898.38" y2="-4669.11" gradientTransform="matrix(-.91 .42 .42 .91 11208.67 809.96)" gradientUnits="userSpaceOnUse"><stop offset="0" stop-color="#fff" stop-opacity="0"></stop><stop offset=".13" stop-color="#eaf1f8" stop-opacity=".18"></stop><stop offset=".36" stop-color="#cadced" stop-opacity=".47"></stop><stop offset=".57" stop-color="#b0cbe4" stop-opacity=".7"></stop><stop offset=".76" stop-color="#9dbede" stop-opacity=".86"></stop><stop offset=".9" stop-color="#92b7da" stop-opacity=".96"></stop><stop offset="1" stop-color="#8eb4d9"></stop></linearGradient></defs><g><rect width="166.45" height="119.73" x="303.29" y="169.87" fill="#f0f3f8" rx="3" transform="rotate(90 386.515 229.725)"></rect><path fill="#f0f3f8" d="M1106.52,353.21H911a5,5,0,0,1-5-5V180.68a5,5,0,0,0-5-5H500.09a5,5,0,0,0-5,5V348.21a5,5,0,0,1-5,5H294.61a5,5,0,0,0-5,5V703.27a5,5,0,0,0,5,5H490.19a5,5,0,0,1,5,5V880.8a5,5,0,0,0,5,5h401a5,5,0,0,0,5-5V713.27a5,5,0,0,1,5-5h195.37a5,5,0,0,0,5-5V358.21A5,5,0,0,0,1106.52,353.21Z"></path><rect width="166.45" height="119.73" x="934.43" y="197.86" fill="#f0f3f8" rx="3"></rect></g><g><path fill="url(#b)" d="M1111.17,178.81a44.28,44.28,0,0,0-10-12.61c-3.71-3.17-6.2-3.95-22.84-9.95-27.54-9.94-30.35-11.29-34-13.47a175.08,175.08,0,0,1-19.91-14.63c-9.86-8.14-10.07-9.77-14.64-11.71-12.83-5.47-26.86.65-29.27,1.75-8.51,3.89-7.51,7-22.25,17-15.28,10.39-19.82,9.44-21.66,8.78-4.68-1.67-4.09-5.74-11.13-10.53a32.11,32.11,0,0,0-14.63-5.27c-2.52-.28-9.07-.68-21.08,4.68-16.49,7.36-16.71,13.72-28.1,17-5.58,1.59-5.7.12-24-.59-19.13-.73-28.69-1.1-38.06,1.76-11.65,3.55-19.62,9.89-26.34,15.22-7,5.57-11.9,9.46-14.71,12.61Z" opacity=".51"></path><path fill="url(#c)" d="M1111.17,178.81a44.28,44.28,0,0,0-10-12.61c-3.71-3.17-6.2-3.95-22.84-9.95-27.54-9.94-30.35-11.29-34-13.47a175.08,175.08,0,0,1-19.91-14.63c-9.86-8.14-10.07-9.77-14.64-11.71-12.83-5.47-26.86.65-29.27,1.75-8.51,3.89-7.51,7-22.25,17-15.28,10.39-19.82,9.44-21.66,8.78-4.68-1.67-4.09-5.74-11.13-10.53a32.11,32.11,0,0,0-14.63-5.27c-2.52-.28-9.07-.68-21.08,4.68-16.49,7.36-16.71,13.72-28.1,17-5.58,1.59-5.7.12-24-.59-19.13-.73-28.69-1.1-38.06,1.76-11.65,3.55-19.62,9.89-26.34,15.22-7,5.57-11.9,9.46-14.71,12.61Z" opacity=".51"></path></g><g><path fill="#cfd7ed" d="M168.9,885.8a58.07,58.07,0,0,1,13-16.45c4.84-4.14,8.09-5.16,29.81-13,36-13,39.62-14.73,44.33-17.58,10.62-6.42,21-15,26-19.11,12.86-10.62,13.14-12.74,19.1-15.29,16.76-7.13,35.07.86,38.22,2.3,11.1,5.07,9.8,9.08,29,22.16,20,13.57,25.87,12.33,28.28,11.47,6.1-2.18,5.34-7.5,14.52-13.76a42,42,0,0,1,19.11-6.88c3.28-.36,11.83-.89,27.52,6.12,21.52,9.6,21.81,17.91,36.68,22.16,7.29,2.08,7.43.15,31.34-.76,25-1,37.46-1.44,49.68,2.29,15.21,4.64,25.62,12.9,34.39,19.87,9.16,7.27,15.54,12.34,19.21,16.45Z"></path><path fill="#cfd7ed" d="M498.78,885.8c14.91-27.43,90.41-49.21,139-53.79,27.92-2.63,57-5.37,92.59,4.24,27.41,7.39,40.91,17.3,68.38,15.12,21.57-1.7,39.86-9.92,51.44-15.12,27.57-12.39,26.61-19.15,47.2-26.63,27.05-9.84,52-6.64,66-4.84,25.89,3.32,26,9.33,61.73,16.34,22.4,4.39,37,7.25,56.88,4.84a134.45,134.45,0,0,0,52.65-17.55c14.65-8.71,14.26-12.57,36.31-26,12.09-7.38,22.41-12.45,35.09-15.74,11-2.85,16.52-4.28,20-3,13.94,5.06,22.57,62.07,11,122.17Z"></path><path fill="#a8b9df" d="M1206,766.65c-12.68,3.29-23,8.36-35.09,15.74-22,13.45-21.66,17.31-36.31,26A134.45,134.45,0,0,1,1082,826c-19.89,2.41-34.48-.45-56.88-4.84-35.76-7-35.84-13-61.73-16.34-14-1.8-38.91-5-66,4.84-20.59,7.48-19.63,14.24-47.2,26.63-11.58,5.2-29.87,13.42-51.44,15.12-27.47,2.18-41-7.73-68.38-15.12-35.61-9.61-64.67-6.87-92.59-4.24-40.34,3.8-99.21,19.45-126.59,40.35H484.33c14.91-27.44,90.41-49.21,139-53.8,27.92-2.63,57-5.37,92.59,4.24,27.41,7.39,40.91,17.3,68.38,15.13,21.57-1.71,39.86-9.93,51.44-15.13,27.57-12.39,26.61-19.14,47.2-26.63,27-9.83,52-6.63,66-4.84,25.89,3.33,26,9.34,61.72,16.34,22.41,4.39,37,7.25,56.89,4.84A134.27,134.27,0,0,0,1120.18,795c14.65-8.7,14.26-12.56,36.31-26,12.09-7.38,22.41-12.44,35.09-15.73,11-2.86,16.52-4.28,20-3s6.74,5.93,9.35,13.12C1217.49,763.69,1212.81,764.9,1206,766.65Z"></path><path fill="#f5ca6e" d="M569.05 885.8a36 36 0 00-13.94-24.32 36 36 0 00-66.44-25.32 35.94 35.94 0 00-44.4 2.45 35.91 35.91 0 00-17.13-8.35 36 36 0 00-70 11.86v.27A36 36 0 00332.34 857a36 36 0 00-49.81 28.82zM1152.35 885.8a50.44 50.44 0 00-19.55-34.11 50.5 50.5 0 00-93.2-35.52 50.46 50.46 0 00-62.29 3.43 50.43 50.43 0 00-24-11.71 50.5 50.5 0 00-98.18 16.64c0 .13 0 .25 0 .38a50.42 50.42 0 00-34.81 20.46 50.51 50.51 0 00-69.87 40.43z"></path><path fill="#a8b9df" d="M158.74,885.8a47.64,47.64,0,0,1,10.68-13.52c4-3.41,6.65-4.24,24.51-10.68,29.55-10.67,32.56-12.11,36.44-14.45,8.72-5.28,17.28-12.35,21.36-15.71,10.57-8.73,10.8-10.48,15.71-12.57,13.77-5.86,28.82.7,31.41,1.89,9.13,4.17,8.06,7.46,23.88,18.22,16.4,11.15,21.26,10.13,23.24,9.42,5-1.79,4.39-6.16,11.94-11.31a34.63,34.63,0,0,1,15.71-5.65c2.69-.3,9.72-.73,22.62,5,17.69,7.89,17.93,14.72,30.15,18.22,6,1.71,6.11.12,25.76-.63,20.53-.79,30.8-1.18,40.84,1.88,12.51,3.82,21.06,10.61,28.28,16.34,7.52,6,12.77,10.15,15.79,13.52Z"></path></g><g><polygon fill="#c4cfe6" points="790.47 885.8 772.74 885.8 802.74 503.94 830.47 503.94 790.47 885.8"></polygon><polygon fill="#a8b9df" points="801.67 517.64 829.04 517.64 830.47 503.94 802.74 503.94 801.67 517.64"></polygon><polygon fill="#c4cfe6" points="972.31 885.8 990.04 885.8 960.04 503.94 932.31 503.94 972.31 885.8"></polygon><polygon fill="#a8b9df" points="961.06 517.64 933.69 517.64 932.25 503.94 959.98 503.94 961.06 517.64"></polygon><rect width="213.32" height="18.65" x="776.72" y="486.35" fill="#cfd7ed"></rect></g><g><g opacity=".63"><polygon fill="#b2c0d6" points="1028.58 260.2 1032.05 265.16 1029.32 267.22 1025.44 262.68 1028.58 260.2"></polygon><polygon fill="#b2c0d6" points="1037.45 273.34 1042.58 281.7 1041.3 282.53 1035.44 274.77 1037.45 273.34"></polygon><polygon fill="#b2c0d6" points="1047.37 290.22 1050.13 295.56 1046.87 290.52 1047.37 290.22"></polygon></g><path fill="url(#a)" d="M788.92,486.63l-2.43-.5-1-2.26a64.09,64.09,0,0,1,8.29-66.48l10.12-12.67,58.18,46.47-10.13,12.68A64.06,64.06,0,0,1,788.92,486.63Z" opacity=".47"></path><path fill="url(#f)" d="M802.16,469l-1.7-.35-.72-1.58a44.79,44.79,0,0,1,5.8-46.49l7.08-8.87,40.68,32.51-7.08,8.86A44.78,44.78,0,0,1,802.16,469Z" opacity=".47"></path><path fill="url(#g)" d="M814,453.23l-1-.22-.44-1a27.6,27.6,0,0,1,3.57-28.63l4.36-5.46,25.06,20-4.36,5.46A27.6,27.6,0,0,1,814,453.23Z" opacity=".47"></path><path fill="#526db3" d="M797.29 344.22l-19.08 23.4 22.46 18.28 28-34.45zm0 0M921.34 445.28l-19.13 23.46-22.37-18.29 28-34.45zm0 0"></path><path fill="#ee465e" d="M889.79,449.1l47-57.72c35.86-44,90.95-112.33,102.22-151a340.92,340.92,0,0,0,14.25-83.66,338,338,0,0,0-79,30.9C938.7,206.37,882.86,274.18,847,318.12l-47,57.72Zm0,0"></path><path fill="#f9bf1f" d="M1039.05,240.37a84.63,84.63,0,0,1-64.76-52.76,338,338,0,0,1,79-30.9,340.92,340.92,0,0,1-14.25,83.66Zm0,0"></path><path fill="#e7ebf6" d="M987.34,237.05a26.8,26.8,0,1,0,9.71,18,26.75,26.75,0,0,0-9.71-18Zm0,0"></path><path fill="#336297" d="M950.41,282.37A31.7,31.7,0,1,1,995,277.82a31.7,31.7,0,0,1-44.63,4.55Zm35.26-43.12a23.88,23.88,0,1,0,3.39,33.27,23.9,23.9,0,0,0-3.39-33.27Zm0,0"></path><path fill="#526db3" d="M864.58,342.15a34.22,34.22,0,0,1-3.29,11.29,47.14,47.14,0,0,1-5.79,9.2,47.63,47.63,0,0,1-7.77,7.51,33.43,33.43,0,0,1-10.4,5.42,32.75,32.75,0,0,1,3.22-11.28,43.74,43.74,0,0,1,5.79-9.12,45,45,0,0,1,7.77-7.52,35,35,0,0,1,10.47-5.5Zm44.61,36.52a35.09,35.09,0,0,0-10.42,5.5A49.3,49.3,0,0,0,891,391.7a46,46,0,0,0-5.79,9.12,33.8,33.8,0,0,0-3.24,11.29,31.41,31.41,0,0,0,10.39-5.51,42.34,42.34,0,0,0,7.8-7.51,49.47,49.47,0,0,0,5.79-9.18,35.58,35.58,0,0,0,3.29-11.24Zm-16.09-26a63.56,63.56,0,0,1-6.45,14.84,96.89,96.89,0,0,1-8.94,13,105.56,105.56,0,0,1-10.92,11.66,61,61,0,0,1-13.5,9.23,58.93,58.93,0,0,1,6.18-15.07,95.37,95.37,0,0,1,8.9-12.93A97.6,97.6,0,0,1,879.31,362a62.32,62.32,0,0,1,13.79-9.33Zm0,0"></path><path fill="#f9bf1f" d="M924.74 485.07l34-41.8c7.17-8.79 5.52-39.43 5.52-39.43s-30.23 4.58-37.47 13.46l-34 41.7zM789.59 374.92l34.06-41.79c7.18-8.8 5.52-39.43 5.52-39.43s-30.26 4.58-37.47 13.43l-34 41.74z"></path><path fill="#336297" d="M756.68 350l6.46-7.93 31.94 26-6.47 7.93zm0 0M891.85 460.29l6.46-7.94 31.94 26-6.46 7.93zm0 0M800.07 375.66l-4.76 5.87L791.13 396l80.81 65.86 13.2-7 4.77-5.87zm0 0"></path><g opacity=".63"><polygon fill="#b2c0d6" points="922.1 409.38 927.26 412.39 926.24 414.11 921.19 410.81 922.1 409.38"></polygon><path fill="#b2c0d6" d="M937.68 418q5.3 2.63 10.72 4.93l-1.12 2.58c-3.65-1.63-7.22-3.44-10.72-5.35zM959.43 427a84.49 84.49 0 0011.32 2.76l-.57 3.27a87.22 87.22 0 01-11.7-3.12zM982.18 430.45a21.25 21.25 0 0010.36-3.26l2 2.88a20.91 20.91 0 01-5.86 2.71 29.5 29.5 0 01-6.21 1.08zM998.62 418.6a31.42 31.42 0 001.06-11.11l3.55-.25a32.93 32.93 0 01-1.22 12.43zM997.76 396.11A107.66 107.66 0 00994.19 385l2.9-1.15a99.9 99.9 0 014 11.41zM989.59 374.13q-2.52-5.34-5.38-10.52l1.94-1.11c2 3.42 4 6.9 5.84 10.45zM978.22 353.39q-3.12-5-6.5-9.91l1.18-.84c2.32 3.22 4.61 6.47 6.84 9.78zM964.73 333.89c-2.41-3.14-4.85-6.26-7.39-9.29l.93-.78c2.52 3.08 5 6.15 7.46 9.3zM949.57 315.62c-2.66-2.93-5.35-5.83-8.11-8.67l1.12-1.06c2.69 2.92 5.36 5.87 8 8.86z"></path><polygon fill="#b2c0d6" points="933.04 298.58 924.64 290.11 926.33 288.54 934.4 297.23 933.04 298.58"></polygon><path fill="#b2c0d6" d="M916.49 281.38c-2.66-2.95-5.29-5.95-7.83-9l2.41-2c2.46 3.08 4.95 6.15 7.49 9.18zM901.18 263c-2.43-3.16-4.83-6.34-7.1-9.63l3-2.06c2.24 3.24 4.49 6.48 6.83 9.65zM887.45 243.44q-3.21-5.07-6.14-10.3l3.33-1.85q2.83 5.16 6 10.18zM875.79 222.46c-1.71-3.63-3.32-7.33-4.69-11.12l3.74-1.36q2 5.49 4.49 10.82zM867.65 199.69a54.85 54.85 0 01-1.4-12.25l4 .05a51 51 0 001.3 11.34zM869 175a19.55 19.55 0 013.92-5.3 21.55 21.55 0 015.35-3.74l1.77 3.59a17.6 17.6 0 00-4.36 3 15.68 15.68 0 00-3.12 4.22zM890.62 163.28a52.68 52.68 0 0112.26 1.38l-.87 3.91a49 49 0 00-11.32-1.29zM914.52 168.19c3.78 1.42 7.48 3 11.09 4.79l-1.75 3.6c-3.52-1.7-7.1-3.27-10.74-4.64zM936.23 178.62q5.22 3 10.24 6.27l-2.19 3.37q-4.95-3.22-10-6.16z"></path><polygon fill="#b2c0d6" points="956.37 191.65 961.24 195.22 958.84 198.44 954.03 194.92 956.37 191.65"></polygon></g><g opacity=".63"><polygon fill="#b2c0d6" points="878.2 488.3 872.79 485.7 872.82 485.64 878.2 488.3"></polygon><polygon fill="#b2c0d6" points="862.45 480.1 852.43 473.94 852.61 473.66 862.55 479.93 862.45 480.1"></polygon><polygon fill="#b2c0d6" points="842.7 467.32 833.24 460.32 833.61 459.84 842.97 466.94 842.7 467.32"></polygon><polygon fill="#b2c0d6" points="824.04 452.97 815.1 445.31 815.68 444.67 824.51 452.41 824.04 452.97"></polygon><path fill="#b2c0d6" d="M806.41,437.37c-2.81-2.74-5.67-5.43-8.44-8.21l.81-.8c2.73,2.81,5.55,5.52,8.32,8.28Z"></path><polygon fill="#b2c0d6" points="789.78 420.69 781.87 411.96 782.92 411.04 790.71 419.82 789.78 420.69"></polygon><polygon fill="#b2c0d6" points="774.24 402.98 766.93 393.73 768.26 392.72 775.43 402.01 774.24 402.98"></polygon><polygon fill="#b2c0d6" points="759.97 384.2 753.42 374.38 755.06 373.35 761.45 383.18 759.97 384.2"></polygon><polygon fill="#b2c0d6" points="747.36 364.24 741.89 353.74 743.88 352.81 749.16 363.24 747.36 364.24"></polygon><path fill="#b2c0d6" d="M737.24 342.84a93 93 0 01-3.5-11.38l2.4-.55A91.45 91.45 0 00739.43 342zM732.18 319.54a28.67 28.67 0 012.24-12.05l2.48 1.14a26.12 26.12 0 00-2.12 10.9zM743 298.44a27.4 27.4 0 0112-2.75l0 3A24.7 24.7 0 00744.28 301zM767 296.94a90.51 90.51 0 0111.5 3.29l-1.11 3.07a87.73 87.73 0 00-11.06-3.3z"></path><polygon fill="#b2c0d6" points="789.52 304.73 800.13 310.05 798.43 313.15 788.08 307.81 789.52 304.73"></polygon><polygon fill="#b2c0d6" points="810.39 316 820.33 322.44 818.18 325.56 808.45 319.11 810.39 316"></polygon><polygon fill="#b2c0d6" points="829.99 329.3 834.8 332.94 832.34 336.1 827.63 332.44 829.99 329.3"></polygon></g></g><g data-name="Robot\Leg\Side"><path fill="#838383" d="M493.23,538.88c-.17-2.08-1.74-2-1.91-4s1.39-2.22,1.22-4.3-1.74-1.95-1.92-4,1.4-2.21,1.23-4.29-1.75-2-1.92-4,1.4-2.21,1.22-4.29l-20.26,1.4c.18,2.08-1.39,2.21-1.22,4.29s1.74,1.95,1.92,4-1.4,2.21-1.23,4.29,1.75,2,1.92,4-1.4,2.21-1.22,4.29,1.74,2,1.91,4Z"></path><path fill="#4e4f50" d="M470.89 515.31h0a23.84 23.84 0 002.43 1.38 15.63 15.63 0 002.56.92c.88.22 1.76.43 2.68.59s1.83.37 2.73.51c1.79.37 3.62.37 5.58.9a12.07 12.07 0 015 2.88 21.5 21.5 0 00-5.25-1.68 26 26 0 00-2.72-.22c-.95-.06-1.91-.18-2.86-.33a31.09 31.09 0 01-5.54-1.49 11.38 11.38 0 01-2.55-1.42 11 11 0 01-2-2zM492.33 529.77a28 28 0 00-5.41-2.18 19.69 19.69 0 00-2.83-.39c-1-.08-2-.22-3-.4a31.69 31.69 0 01-5.81-1.72 10.71 10.71 0 01-4.68-3.84 16 16 0 005.11 2.69c.92.26 1.85.51 2.82.71s1.91.45 2.86.62 1.89.33 2.87.47a14.22 14.22 0 013 .69 11.63 11.63 0 012.73 1.43A18 18 0 01492.33 529.77zM470.39 528.05a15.53 15.53 0 005.12 2.43c.92.24 1.84.46 2.79.66s1.86.42 2.8.57 1.86.31 2.83.45a12.48 12.48 0 012.95.73 12.81 12.81 0 014.9 3.37h0a22.42 22.42 0 00-5.27-2.2 15.18 15.18 0 00-2.75-.42c-1-.09-1.95-.21-2.93-.38a33.35 33.35 0 01-5.7-1.62A10.45 10.45 0 01470.39 528.05z"></path><path fill="#838383" d="M501,691c-.22-2.08-1.78-1.92-2-4s1.34-2.25,1.13-4.33-1.79-1.91-2-4,1.35-2.24,1.13-4.32-1.78-1.91-2-4,1.35-2.24,1.13-4.31L478.14,668c.22,2.07-1.34,2.24-1.13,4.31s1.79,1.91,2,4-1.35,2.24-1.13,4.31,1.78,1.92,2,4-1.35,2.25-1.13,4.32,1.79,1.92,2,4Z"></path><path fill="#4e4f50" d="M478.14 667.94h0a25.69 25.69 0 002.46 1.33 15.94 15.94 0 002.58.86c.88.2 1.77.39 2.69.53s1.84.33 2.74.45c1.8.33 3.63.29 5.6.78a12.1 12.1 0 015 2.77A21.49 21.49 0 00494 673.1c-.88-.1-1.78-.13-2.73-.16s-1.91-.13-2.86-.26a31 31 0 01-5.57-1.37 11.85 11.85 0 01-2.59-1.36 11.6 11.6 0 01-2.08-2h0zM499.89 681.94a28 28 0 00-5.46-2.06 18.4 18.4 0 00-2.84-.33c-1-.07-2-.18-3-.33a31.92 31.92 0 01-5.85-1.6 10.75 10.75 0 01-4.76-3.74 15.88 15.88 0 005.17 2.58c.92.24 1.86.47 2.83.65s1.92.41 2.87.55 1.91.29 2.89.41a15.05 15.05 0 013 .63 11.29 11.29 0 012.76 1.37A17.88 17.88 0 01499.89 681.94zM477.91 680.7a15.92 15.92 0 005.18 2.32c.92.21 1.85.42 2.8.59s1.88.38 2.82.52 1.86.26 2.84.38a13.13 13.13 0 013 .66 12.89 12.89 0 015 3.26h0a22.89 22.89 0 00-5.31-2.09 16.53 16.53 0 00-2.76-.36c-1-.07-2-.16-2.94-.31a33 33 0 01-5.74-1.5A10.6 10.6 0 01477.91 680.7z"></path><path fill="#838383" d="M503.73,802.33c-.22-2.08-1.78-1.92-2-4s1.35-2.25,1.13-4.33-1.79-1.91-2-4,1.35-2.24,1.13-4.32-1.78-1.91-2-4,1.35-2.24,1.13-4.31l-20.22,1.84c.21,2.07-1.35,2.24-1.13,4.31s1.78,1.91,2,4-1.35,2.24-1.13,4.31,1.79,1.92,2,4-1.34,2.25-1.12,4.32,1.78,1.92,2,4Z"></path><path fill="#4e4f50" d="M480.89 779.24h0a26.81 26.81 0 002.45 1.33 15.94 15.94 0 002.58.86c.88.2 1.78.39 2.69.53s1.84.33 2.74.45c1.8.33 3.64.29 5.6.78a12.1 12.1 0 015 2.77 21.49 21.49 0 00-5.28-1.57c-.88-.1-1.78-.13-2.73-.16s-1.91-.13-2.86-.26a31.24 31.24 0 01-5.57-1.37 12.08 12.08 0 01-2.59-1.36 11.6 11.6 0 01-2.08-2h0zM502.63 793.24a27.8 27.8 0 00-5.46-2.06 18.41 18.41 0 00-2.83-.33c-1-.07-2-.18-3-.34a30.81 30.81 0 01-5.84-1.59 10.72 10.72 0 01-4.77-3.74 16 16 0 005.17 2.58c.93.24 1.86.47 2.83.65s1.92.41 2.87.55 1.91.29 2.89.41a14.77 14.77 0 013 .63 11.29 11.29 0 012.76 1.37A17.26 17.26 0 01502.63 793.24zM480.66 792a15.82 15.82 0 005.18 2.32c.91.21 1.84.42 2.79.59s1.88.38 2.82.52 1.87.26 2.84.38a12.52 12.52 0 017.93 3.92h0a23.14 23.14 0 00-5.32-2.09 16.39 16.39 0 00-2.76-.36c-1-.07-2-.16-2.94-.31a33 33 0 01-5.74-1.5A10.52 10.52 0 01480.66 792z"></path><path fill="#f6be1d" d="M511.54 672l-51.61 1.39c-2.3.22-4.26-1.54-4.63-4.17L436.34 538c-.55-3.85 2.45-7.47 5.73-6.92l80.09 13.29c2.32.39 3.89 2.77 3.66 5.58L516.3 666.47C516.06 669.36 514 671.76 511.54 672zM508.33 778.3l-35.11 1.63c-2.62.27-4.74-2-4.74-5.07l.37-82.31c0-3.07 2.12-5.78 4.74-6l34.74 0c2.62-.27 4.74 2 4.74 5.07v80.66C513.07 775.32 511 778 508.33 778.3zM510.34 885.79H474.69c-2.62.27-4.74-2-4.74-5.06L468.85 800c0-3.07 2.12-5.77 4.74-6l36.74 0c2.62-.27 4.74 2 4.74 5.06v80.67C515.08 882.82 513 885.52 510.34 885.79z"></path><path fill="#787878" d="M438 549.26h0a91.44 91.44 0 007.88 15.22c.77 1.16 1.54 2.32 2.36 3.39s1.71 2.13 2.59 3.19l5.28 6.42c3.54 4.26 7 8.65 10.42 13l10.25 13.33 5 6.75a39.55 39.55 0 014.07 8c.57 1.42 1 2.91 1.45 4.39s.8 3 1.06 4.55a67.56 67.56 0 011.19 9.34c.81 12.62-1.13 25.35-4.11 37.57 1.45-12.46 2.48-25 1.17-36.92a63.15 63.15 0 00-4-16.89 38 38 0 00-3.82-7.26l-5.06-6.59-9.95-13.34c-3.3-4.51-6.66-9-9.93-13.51-1.64-2.27-3.3-4.51-4.92-6.81-.81-1.16-1.62-2.31-2.41-3.53s-1.5-2.48-2.19-3.77A75 75 0 01438 549.28h0zM513.07 697.1c-1.64 7.8-3.59 15.5-5.74 23.13s-4.43 15.23-7.05 22.75a108.42 108.42 0 01-4.49 11.22 92.69 92.69 0 01-6 10.33 83.43 83.43 0 01-15.12 17.24h0a175.19 175.19 0 0012.78-19.11c1.86-3.34 3.68-6.76 5.21-10.23s2.82-7.13 4.11-10.83c2.58-7.41 5.13-14.89 7.79-22.33S510 704.41 513.07 697.1z"></path><polygon fill="#ee9e23" points="522.82 586.59 506.22 586.69 503.26 628.79 519.38 628.69 522.82 586.59"></polygon><polygon fill="#ee9e23" points="468.85 752 479.11 750.93 479.1 709 468.85 710.06 468.85 752"></polygon><polygon fill="#ee9e23" points="469.6 836.85 481.44 836.85 481.44 801.09 469.12 801.77 469.6 836.85"></polygon><path fill="#ee9e23" d="M470,880c0,3.48,2.12,6.05,4.74,5.74h35.65c2.62-.3,4.74-3.37,4.74-6.85V824.58c-.3,0-.6,0-.9,0h-4c-17.84,0-33.25,14.18-40.51,34.71Z"></path><path fill="#f6be1d" d="M472.29,885.8h0c0-29.87,20.12-54.09,44.94-54.09h4c24.82,0,44.93,24.22,44.93,54.09Z"></path></g><g data-name="Robot\Head\Side"><path fill="#838383" d="M486.71,396.2c-.06-2.09-1.63-2-1.7-4.13s1.52-2.14,1.46-4.23-1.64-2-1.7-4.12,1.51-2.14,1.45-4.22-1.63-2-1.69-4.13,1.51-2.13,1.45-4.22l-20.3.31c.06,2.08-1.52,2.13-1.46,4.21s1.64,2,1.7,4.13-1.51,2.13-1.45,4.22,1.63,2,1.69,4.13-1.51,2.13-1.45,4.22,1.63,2,1.69,4.13Z"></path><path fill="#4e4f50" d="M465.68 371.45h0c5.89 5 15.13 2.6 20.53 8.29-6.49-3.7-15.86-1.42-20.54-8.29zM486.3 387.06c-6.52-4.55-16.68-2.21-21.24-9.7C471 383.08 480.93 380.56 486.3 387.06zM464.48 384.15c6 5.27 15.84 2.81 20.92 9.36h0C479.08 388.89 469.19 391.23 464.48 384.15z"></path><path fill="#fcc01d" d="M512.87,371.48c-93.34-5-78.43,25.28-79.32-68.5a8,8,0,0,1,8-8c93.34,4.95,78.43-25.28,79.32,68.5A8,8,0,0,1,512.87,371.48Z"></path><path fill="#f2a01e" d="M528.14,316.63c.06-4-4.36-4.18-7.29-3.93v29.85c2.94.25,7.35,0,7.29-3.94Z"></path><rect width="4.72" height="57.73" x="474.47" y="275.5" fill="#4e4f50" transform="rotate(-.74 473.459 302.707)"></rect><path fill="#f2a01e" d="M490.53 275.52H462.9a3 3 0 01-3-3c-.28-2 .74-4.21 3-4.18h27.64C494.61 268.28 494.62 275.58 490.53 275.52zM492.28 334.27c-1.45 19.72-31.43 17.64-30.16-2.08C463.58 312.47 493.56 314.55 492.28 334.27z"></path></g><g data-name="Cloud"><path fill="url(#h)" d="M525.51,278.25a44.42,44.42,0,0,0-10-12.61c-3.7-3.17-6.2-3.95-22.84-9.95-27.54-9.94-30.34-11.28-34-13.46a178,178,0,0,1-19.91-14.64c-9.85-8.14-10.06-9.76-14.64-11.71-12.83-5.47-26.85.65-29.27,1.75-8.51,3.89-7.51,7-22.25,17-15.28,10.4-19.81,9.45-21.66,8.79-4.67-1.67-4.09-5.74-11.13-10.54a32.07,32.07,0,0,0-14.63-5.27c-2.52-.28-9.06-.68-21.08,4.68-16.49,7.36-16.71,13.72-28.1,17-5.58,1.6-5.69.12-24-.58-19.13-.74-28.69-1.1-38.05,1.75-11.66,3.56-19.63,9.89-26.35,15.22-7,5.57-11.9,9.46-14.71,12.61Z" opacity=".51"></path><path fill="url(#i)" d="M525.51,278.25a44.42,44.42,0,0,0-10-12.61c-3.7-3.17-6.2-3.95-22.84-9.95-27.54-9.94-30.34-11.28-34-13.46a178,178,0,0,1-19.91-14.64c-9.85-8.14-10.06-9.76-14.64-11.71-12.83-5.47-26.85.65-29.27,1.75-8.51,3.89-7.51,7-22.25,17-15.28,10.4-19.81,9.45-21.66,8.79-4.67-1.67-4.09-5.74-11.13-10.54a32.07,32.07,0,0,0-14.63-5.27c-2.52-.28-9.06-.68-21.08,4.68-16.49,7.36-16.71,13.72-28.1,17-5.58,1.6-5.69.12-24-.58-19.13-.74-28.69-1.1-38.05,1.75-11.66,3.56-19.63,9.89-26.35,15.22-7,5.57-11.9,9.46-14.71,12.61Z" opacity=".51"></path></g><g><rect width="195.74" height="132.24" x="1043.14" y="345.88" fill="url(#j)" opacity=".47"></rect><path fill="url(#d)" d="M1138.1,366.17A42.92,42.92,0,1,0,1181,409.09,42.92,42.92,0,0,0,1138.1,366.17Zm0,66.69a23.77,23.77,0,1,1,23.77-23.77A23.76,23.76,0,0,1,1138.1,432.86Z"></path><path fill="#a4b5dd" d="M1161.86,409.42a23.76,23.76,0,0,1-23.76,23.44V452A42.92,42.92,0,0,0,1181,409.42Z"></path><path fill="none" stroke="url(#k)" stroke-miterlimit="10" stroke-width="4" d="M1161.87,409.09c0,.11,0,.21,0,.33H1181c0-.11,0-.22,0-.33a42.93,42.93,0,0,0-42.92-42.92v19.15A23.75,23.75,0,0,1,1161.87,409.09Z"></path><rect width="11.22" height="11.22" x="1047.83" y="421.63" fill="url(#l)"></rect><rect width="11.22" height="11.22" x="1047.83" y="438.47" fill="url(#m)"></rect><rect width="11.22" height="11.22" x="1047.83" y="455.3" fill="url(#n)"></rect><line x1="1064.67" x2="1090.09" y1="427.24" y2="427.24" fill="none" stroke="url(#o)" stroke-miterlimit="10" stroke-width="4"></line><line x1="1055.42" x2="1080.84" y1="359.24" y2="359.24" fill="none" stroke="url(#p)" stroke-miterlimit="10" stroke-width="4"></line><line x1="1055.42" x2="1075.34" y1="366.17" y2="366.17" fill="none" stroke="url(#q)" stroke-miterlimit="10" stroke-width="4"></line><line x1="1196.1" x2="1221.52" y1="360.26" y2="360.26" fill="none" stroke="url(#r)" stroke-miterlimit="10" stroke-width="4"></line><line x1="1196.1" x2="1216.02" y1="367.2" y2="367.2" fill="none" stroke="url(#s)" stroke-miterlimit="10" stroke-width="4"></line><line x1="1196.1" x2="1216.02" y1="353.33" y2="353.33" fill="none" stroke="url(#t)" stroke-miterlimit="10" stroke-width="4"></line><line x1="1207.73" x2="1233.15" y1="446.94" y2="446.94" fill="none" stroke="url(#u)" stroke-miterlimit="10" stroke-width="4"></line><line x1="1207.73" x2="1227.65" y1="453.47" y2="453.47" fill="none" stroke="url(#v)" stroke-miterlimit="10" stroke-width="4"></line><line x1="1207.73" x2="1233.15" y1="460" y2="460" fill="none" stroke="url(#w)" stroke-miterlimit="10" stroke-width="4"></line><line x1="1207.73" x2="1227.65" y1="466.53" y2="466.53" fill="none" stroke="url(#x)" stroke-miterlimit="10" stroke-width="4"></line><line x1="1064.67" x2="1090.09" y1="444.08" y2="444.08" fill="none" stroke="url(#y)" stroke-miterlimit="10" stroke-width="4"></line><line x1="1064.67" x2="1090.09" y1="460.92" y2="460.92" fill="none" stroke="url(#z)" stroke-miterlimit="10" stroke-width="4"></line><line x1="1085.13" x2="1100.65" y1="368.24" y2="377.3" fill="none" stroke="#a4b5dd" stroke-miterlimit="10" stroke-width="4"></line><line x1="1175.41" x2="1190.6" y1="377.06" y2="369.14" fill="none" stroke="#a4b5dd" stroke-miterlimit="10" stroke-width="4"></line><line x1="1183" x2="1202.42" y1="425.53" y2="441.61" fill="none" stroke="#a4b5dd" stroke-miterlimit="10" stroke-width="4"></line><polygon fill="#fff" points="1129.58 345.88 1091.95 478.12 1059.69 478.12 1097.32 345.88 1129.58 345.88" opacity=".43"></polygon><polygon fill="#fff" points="1192.44 345.88 1154.81 478.12 1107.25 478.12 1144.88 345.88 1192.44 345.88" opacity=".43"></polygon><rect width="199.12" height="139.36" x="1039.77" y="342.43" fill="none" stroke="url(#e)" stroke-miterlimit="10" stroke-width="7" opacity=".47"></rect></g><g data-name="Tabs"><rect width="190.36" height="146.95" x="547.6" y="127.24" fill="url(#A)" opacity=".47"></rect><g opacity=".47"><rect width="18.77" height="64.27" x="567.71" y="198.08" fill="url(#B)"></rect><rect width="18.77" height="75.73" x="601.44" y="187.08" fill="url(#C)"></rect><rect width="18.77" height="51.49" x="634.28" y="211.32" fill="url(#D)"></rect><rect width="18.77" height="51.49" x="699.08" y="211.32" fill="url(#E)"></rect><rect width="18.77" height="64.73" x="666.62" y="198.08" fill="url(#F)"></rect></g><line x1="558.99" x2="611.19" y1="145.08" y2="145.08" fill="none" stroke="url(#G)" stroke-miterlimit="10" stroke-width="3" opacity=".47"></line><line x1="558.99" x2="611.19" y1="157.57" y2="157.57" fill="none" stroke="url(#H)" stroke-miterlimit="10" stroke-width="3" opacity=".47"></line><line x1="558.99" x2="592.47" y1="151.14" y2="151.14" fill="none" stroke="url(#I)" stroke-miterlimit="10" stroke-width="3" opacity=".47"></line><line x1="558.99" x2="592.47" y1="163.89" y2="163.89" fill="none" stroke="url(#J)" stroke-miterlimit="10" stroke-width="3" opacity=".47"></line><line x1="596.06" x2="605.51" y1="151.14" y2="151.14" fill="none" stroke="url(#K)" stroke-miterlimit="10" stroke-width="3" opacity=".47"></line><line x1="596.06" x2="602.49" y1="163.89" y2="163.89" fill="none" stroke="url(#L)" stroke-miterlimit="10" stroke-width="3" opacity=".47"></line><line x1="615.73" x2="626.88" y1="145.08" y2="145.08" fill="none" stroke="url(#M)" stroke-miterlimit="10" stroke-width="3" opacity=".47"></line><line x1="614.4" x2="626.88" y1="157.57" y2="157.57" fill="none" stroke="url(#N)" stroke-miterlimit="10" stroke-width="3" opacity=".47"></line><line x1="685.39" x2="722.82" y1="144.42" y2="144.42" fill="none" stroke="url(#O)" stroke-miterlimit="10" stroke-width="3" opacity=".63"></line><line x1="685.39" x2="707.85" y1="149.97" y2="149.97" fill="none" stroke="url(#P)" stroke-miterlimit="10" stroke-width="3" opacity=".63"></line><line x1="685.39" x2="722.82" y1="155.65" y2="155.65" fill="none" stroke="url(#Q)" stroke-miterlimit="10" stroke-width="3" opacity=".63"></line><line x1="685.39" x2="707.85" y1="161.54" y2="161.54" fill="none" stroke="url(#R)" stroke-miterlimit="10" stroke-width="3" opacity=".63"></line><polygon fill="#fff" points="634.9 127.24 600.5 274.19 571.17 274.19 605.58 127.24 634.9 127.24" opacity=".43"></polygon><polygon fill="#fff" points="692.05 127.24 657.64 274.19 614.41 274.19 648.81 127.24 692.05 127.24" opacity=".43"></polygon><g opacity=".47"><path fill="url(#S)" d="M745,281.19H540.6V120.24H745Zm-197.37-7H738V127.24H547.6Z"></path></g></g><g data-name="Tabs"><rect width="210.12" height="132.36" x="164.62" y="337.66" fill="url(#T)" opacity=".47"></rect><rect width="181.77" height="58.57" x="178.79" y="362.12" fill="#a4b5dd"></rect><rect width="123.75" height="17.13" x="178.79" y="437.2" fill="url(#U)" opacity=".47"></rect><polyline fill="none" stroke="url(#V)" stroke-miterlimit="10" stroke-width="3" points="188.99 409.11 205.07 384.99 214.34 406.63 229.18 392.41 247.11 401.69 273.08 384.99 279.26 397.05 299.05 384.99 311.41 405.4 316.98 392.41 332.43 378.81 339.23 393.96 350.36 378.81" opacity=".47"></polyline><polyline fill="none" stroke="url(#W)" stroke-miterlimit="10" stroke-width="3" points="188.99 393.96 202.49 401.69 217.74 393.96 232.17 407.25 243.3 390.76 257.72 401.69 264.73 378.81 283.69 387.05 289.87 397.36 311.31 384.58 325.73 399.83 354.18 387.05"></polyline><line x1="316.75" x2="354.17" y1="437.2" y2="437.2" fill="none" stroke="url(#X)" stroke-miterlimit="10" stroke-width="3" opacity=".63"></line><line x1="316.75" x2="339.2" y1="442.76" y2="442.76" fill="none" stroke="url(#Y)" stroke-miterlimit="10" stroke-width="3" opacity=".63"></line><line x1="316.75" x2="354.17" y1="448.44" y2="448.44" fill="none" stroke="url(#Z)" stroke-miterlimit="10" stroke-width="3" opacity=".63"></line><line x1="316.75" x2="339.2" y1="454.33" y2="454.33" fill="none" stroke="url(#aa)" stroke-miterlimit="10" stroke-width="3" opacity=".63"></line><polygon fill="#fff" points="260.91 337.66 223.27 470.02 191.01 470.02 228.66 337.66 260.91 337.66" opacity=".43"></polygon><polygon fill="#fff" points="323.78 337.66 286.13 470.02 238.57 470.02 276.22 337.66 323.78 337.66" opacity=".43"></polygon><g opacity=".47"><path fill="url(#ab)" d="M381.73,477H157.62V330.66H381.73Zm-217.11-7H374.73V337.66H164.62Z"></path></g></g><g data-name="Robot/Body/side"><g data-name="Robot\Body\Side\10"><g data-name="Robot\Body\Side\10"><path fill="url(#ac)" d="M547.42,444.74c10.07,8.17,6,13.14,16.11,21.32s14.1,3.2,24.17,11.37,6,13.14,16.12,21.32,14.1,3.2,24.18,11.37l62.27-28.52c-.16-13-2.54-14.32-2.71-27.29s8.56-14.58,8.4-27.55-6.57-12.89-6.73-25.86,6.23-13.06,6.07-26Z"></path><rect width="71.28" height="9.24" x="624.9" y="495.37" fill="#336297" rx="2" transform="rotate(-25.08 660.664 500.042)"></rect><path fill="#c23e56" d="M435.26,441.45c30-21.77,41.85-18.39,46.38-16,.69.36,6.73,3.69,7.4,9.19,1,8.43-11.21,16.05-18.36,20.9a237.49,237.49,0,0,0-81.9,100.11c-4.12,8.1-7.44,14.92-14,16.53C367.62,574,358.46,569,354.44,563,338.31,539.16,390,474.31,435.26,441.45Z"></path><path fill="#4e4f50" d="M369.05 572.34A23.49 23.49 0 01354.44 563a16.48 16.48 0 01-2.18-4.71 10.94 10.94 0 1016.79 14zM454.75 483.43c-1.44 4.57-3.08 9.26-4.9 14l-1.69-.37a9.16 9.16 0 01-7-10.89l6.17-28.24a9.18 9.18 0 0110.89-7l2.5.54C460.78 458.8 459.26 469 454.75 483.43zM414.47 510.72q3.46-4.75 7-9.13l-7-5.68a4.08 4.08 0 00-5.73.58L400.19 507a4.08 4.08 0 00.58 5.73l7.87 6.4Q411.4 515 414.47 510.72z"></path><rect width="34.57" height="37.84" x="464.48" y="504.46" fill="#4e4f50"></rect><path fill="#4e4f50" d="M474.86,479.43c1.43,4.58,3.08,9.27,4.89,14l1.69-.37a9.17,9.17,0,0,0,7-10.88L482.28,454a9.17,9.17,0,0,0-10.89-7l-2.5.54C468.85,454.8,470.36,465,474.86,479.43Z"></path><path fill="#ee465e" d="M439.21,510.07a6.1,6.1,0,0,1-6.17-6L432,400.32a6.11,6.11,0,0,1,6-6.18l72.33-.91a6.09,6.09,0,0,1,6.17,6c19,54.39,23.44,105.64,14.51,110.69C527.94,511.66,439.21,510.07,439.21,510.07Z"></path><rect width="4.57" height="3.43" x="446.86" y="394" fill="#c23e56" transform="rotate(-1.42 447.47 394.55)"></rect><polygon fill="#c23e56" points="446.9 408.19 446.81 400.76 451.39 400.65 451.47 408.08 446.9 408.19"></polygon><polygon fill="#c23e56" points="446.9 419.01 446.81 411.58 451.39 411.47 451.47 418.9 446.9 419.01"></polygon><path fill="#c23e56" d="M449,499.86l-.17-7,4.57-.11.17,7Zm-.35-14.06-.17-7,4.57-.11.17,7Zm-.35-14.06-.17-7,4.57-.12.18,7Zm-.35-14.06-.17-7,4.57-.11.18,7Zm-.34-14.07-.18-7,4.58-.11.17,7Zm-.35-14.06-.18-7,4.58-.11.17,7Z"></path><rect width="4.57" height="3.43" x="449.21" y="506.83" fill="#c23e56" transform="rotate(-1.42 450.115 506.766)"></rect><path fill="#ec5f7a" d="M490,472.91c-28.31-23.92-27.86-36.25-26.6-41.23.19-.75,2-7.41,7.16-9.37,7.94-3,18.26,7,24.68,12.83A237.66,237.66,0,0,0,612,490.74c8.84,2.06,16.26,3.65,19.39,9.61,3.43,6.55.76,16.65-4.06,22C608,543.69,532.69,509,490,472.91Z"></path><path fill="#4e4f50" d="M632.88 505.91a23.55 23.55 0 01-5.56 16.42 16.42 16.42 0 01-4.05 3.23 10.94 10.94 0 109.61-19.65zM490 472.91c3.66 3.09 7.56 6.17 11.64 9.21l1.23-1.22a9.17 9.17 0 00.06-12.94l-20.34-20.54a9.18 9.18 0 00-12.94-.06l-1.82 1.8C471.67 455.35 478.43 463.16 490 472.91zM562.18 476.53q-5.43-2.22-10.52-4.6l-3.86 8.14a4.1 4.1 0 002 5.43L562 491.29a4.09 4.09 0 005.43-1.94l4.33-9.16C568.61 479.06 565.42 477.85 562.18 476.53z"></path></g></g></g></svg>